<svg xmlns="http://www.w3.org/2000/svg" xmlns:xlink="http://www.w3.org/1999/xlink" width="500" zoomAndPan="magnify" viewBox="0 0 375 112.499997" height="150" preserveAspectRatio="xMidYMid meet" version="1.0"><defs><g/><clipPath id="f8413d84a4"><path d="M 0.828125 19 L 374.167969 19 L 374.167969 98 L 0.828125 98 Z M 0.828125 19 " clip-rule="nonzero"/></clipPath><clipPath id="f737f3f86d"><path d="M 0.828125 49 L 374.167969 49 L 374.167969 78.246094 L 0.828125 78.246094 Z M 0.828125 49 " clip-rule="nonzero"/></clipPath><clipPath id="3d01157f59"><rect x="0" width="375" y="0" height="30"/></clipPath><clipPath id="e520e06f3e"><path d="M 0.828125 10 L 115 10 L 115 52 L 0.828125 52 Z M 0.828125 10 " clip-rule="nonzero"/></clipPath><clipPath id="b7f2f36a5f"><rect x="0" width="115" y="0" height="42"/></clipPath><clipPath id="4948cd5391"><path d="M 189 10 L 374.167969 10 L 374.167969 52 L 189 52 Z M 189 10 " clip-rule="nonzero"/></clipPath><clipPath id="3ffb5617e0"><path d="M 0.113281 12 L 34 12 L 34 34 L 0.113281 34 Z M 0.113281 12 " clip-rule="nonzero"/></clipPath><clipPath id="73580e6d94"><rect x="0" width="186" y="0" height="42"/></clipPath><clipPath id="5b05f06457"><path d="M 156 0.832031 L 206 0.832031 L 206 55 L 156 55 Z M 156 0.832031 " clip-rule="nonzero"/></clipPath><clipPath id="ff5d055813"><path d="M 0.378906 9 L 44 9 L 44 43 L 0.378906 43 Z M 0.378906 9 " clip-rule="nonzero"/></clipPath><clipPath id="3bcef82259"><rect x="0" width="50" y="0" height="55"/></clipPath><clipPath id="a2c1e4ad49"><path d="M 0.804688 9 L 43.8125 9 L 43.8125 43 L 0.804688 43 Z M 0.804688 9 " clip-rule="nonzero"/></clipPath><clipPath id="692dc0ad77"><rect x="0" width="44" y="0" height="55"/></clipPath><clipPath id="ae86816d5f"><path d="M 0.105469 9 L 43 9 L 43 43 L 0.105469 43 Z M 0.105469 9 " clip-rule="nonzero"/></clipPath><clipPath id="1ef9fe96df"><rect x="0" width="44" y="0" height="55"/></clipPath><clipPath id="bdb6153e51"><rect x="0" width="375" y="0" height="79"/></clipPath></defs><g clip-path="url(#f8413d84a4)"><g transform="matrix(1, 0, 0, 1, 0.000000000000000111, 19)"><g clip-path="url(#bdb6153e51)"><g clip-path="url(#f737f3f86d)"><g transform="matrix(1, 0, 0, 1, 0.000000000000000111, 49)"><g clip-path="url(#3d01157f59)"><g fill="#c40a6e" fill-opacity="1"><g transform="translate(0.829651, 20.568976)"><g><path d="M 5.84375 0 L 1.46875 0 L 1.46875 -12.6875 L 5.84375 -12.6875 C 7.800781 -12.6875 9.132812 -12.191406 9.84375 -11.203125 C 10.5625 -10.210938 10.921875 -8.660156 10.921875 -6.546875 C 10.921875 -5.472656 10.847656 -4.5625 10.703125 -3.8125 C 10.566406 -3.070312 10.320312 -2.398438 9.96875 -1.796875 C 9.257812 -0.597656 7.882812 0 5.84375 0 Z M 8.796875 -6.546875 C 8.796875 -8.078125 8.601562 -9.179688 8.21875 -9.859375 C 7.832031 -10.546875 7.039062 -10.890625 5.84375 -10.890625 L 3.515625 -10.890625 L 3.515625 -1.8125 L 5.84375 -1.8125 C 7.070312 -1.8125 7.890625 -2.265625 8.296875 -3.171875 C 8.492188 -3.617188 8.625 -4.101562 8.6875 -4.625 C 8.757812 -5.144531 8.796875 -5.785156 8.796875 -6.546875 Z M 8.796875 -6.546875 "/></g></g></g><g fill="#c40a6e" fill-opacity="1"><g transform="translate(16.649054, 20.568976)"><g><path d="M 8.078125 -6.40625 L 8.078125 -2.1875 C 8.085938 -1.914062 8.15625 -1.710938 8.28125 -1.578125 C 8.414062 -1.453125 8.617188 -1.367188 8.890625 -1.328125 L 8.828125 0.203125 C 7.765625 0.203125 6.945312 -0.0234375 6.375 -0.484375 C 5.382812 -0.0234375 4.390625 0.203125 3.390625 0.203125 C 1.546875 0.203125 0.625 -0.773438 0.625 -2.734375 C 0.625 -3.671875 0.875 -4.347656 1.375 -4.765625 C 1.875 -5.191406 2.644531 -5.445312 3.6875 -5.53125 L 6.078125 -5.734375 L 6.078125 -6.40625 C 6.078125 -6.894531 5.96875 -7.238281 5.75 -7.4375 C 5.53125 -7.632812 5.210938 -7.734375 4.796875 -7.734375 C 4.003906 -7.734375 3.015625 -7.6875 1.828125 -7.59375 L 1.234375 -7.546875 L 1.171875 -8.984375 C 2.515625 -9.304688 3.75 -9.46875 4.875 -9.46875 C 6.007812 -9.46875 6.828125 -9.222656 7.328125 -8.734375 C 7.828125 -8.242188 8.078125 -7.46875 8.078125 -6.40625 Z M 3.921875 -4.109375 C 3.066406 -4.035156 2.640625 -3.570312 2.640625 -2.71875 C 2.640625 -1.863281 3.019531 -1.4375 3.78125 -1.4375 C 4.394531 -1.4375 5.046875 -1.535156 5.734375 -1.734375 L 6.078125 -1.84375 L 6.078125 -4.3125 Z M 3.921875 -4.109375 "/></g></g></g><g fill="#c40a6e" fill-opacity="1"><g transform="translate(29.989731, 20.568976)"><g><path d="M 6.203125 -7.53125 L 3.640625 -7.53125 L 3.640625 -3.46875 C 3.640625 -2.707031 3.695312 -2.203125 3.8125 -1.953125 C 3.925781 -1.710938 4.210938 -1.59375 4.671875 -1.59375 L 6.1875 -1.640625 L 6.28125 -0.03125 C 5.445312 0.125 4.816406 0.203125 4.390625 0.203125 C 3.335938 0.203125 2.613281 -0.0351562 2.21875 -0.515625 C 1.832031 -0.992188 1.640625 -1.898438 1.640625 -3.234375 L 1.640625 -7.53125 L 0.46875 -7.53125 L 0.46875 -9.25 L 1.640625 -9.25 L 1.640625 -11.9375 L 3.640625 -11.9375 L 3.640625 -9.25 L 6.203125 -9.25 Z M 6.203125 -7.53125 "/></g></g></g><g fill="#c40a6e" fill-opacity="1"><g transform="translate(40.574188, 20.568976)"><g><path d="M 7.8125 -1.671875 L 8.328125 -1.71875 L 8.375 -0.21875 C 6.96875 0.0625 5.71875 0.203125 4.625 0.203125 C 3.257812 0.203125 2.273438 -0.171875 1.671875 -0.921875 C 1.078125 -1.679688 0.78125 -2.882812 0.78125 -4.53125 C 0.78125 -7.820312 2.117188 -9.46875 4.796875 -9.46875 C 7.390625 -9.46875 8.6875 -8.050781 8.6875 -5.21875 L 8.546875 -3.78125 L 2.8125 -3.78125 C 2.820312 -3.007812 2.988281 -2.445312 3.3125 -2.09375 C 3.632812 -1.738281 4.234375 -1.5625 5.109375 -1.5625 C 5.984375 -1.5625 6.882812 -1.597656 7.8125 -1.671875 Z M 6.703125 -5.328125 C 6.703125 -6.242188 6.554688 -6.882812 6.265625 -7.25 C 5.972656 -7.613281 5.484375 -7.796875 4.796875 -7.796875 C 4.109375 -7.796875 3.601562 -7.601562 3.28125 -7.21875 C 2.96875 -6.832031 2.804688 -6.203125 2.796875 -5.328125 Z M 6.703125 -5.328125 "/></g></g></g><g fill="#c40a6e" fill-opacity="1"><g transform="translate(53.933362, 20.568976)"><g><path d="M 3.234375 0 L 1.21875 0 L 1.21875 -9.25 L 3.21875 -9.25 L 3.21875 -8.6875 C 4.125 -9.207031 4.976562 -9.46875 5.78125 -9.46875 C 7.007812 -9.46875 7.847656 -9.117188 8.296875 -8.421875 C 8.753906 -7.722656 8.984375 -6.570312 8.984375 -4.96875 L 8.984375 0 L 6.984375 0 L 6.984375 -4.90625 C 6.984375 -5.90625 6.875 -6.613281 6.65625 -7.03125 C 6.4375 -7.457031 5.992188 -7.671875 5.328125 -7.671875 C 4.703125 -7.671875 4.097656 -7.546875 3.515625 -7.296875 L 3.234375 -7.1875 Z M 3.234375 0 "/></g></g></g><g fill="#c40a6e" fill-opacity="1"><g transform="translate(67.995452, 20.568976)"><g><path d="M 6.203125 -7.53125 L 3.640625 -7.53125 L 3.640625 -3.46875 C 3.640625 -2.707031 3.695312 -2.203125 3.8125 -1.953125 C 3.925781 -1.710938 4.210938 -1.59375 4.671875 -1.59375 L 6.1875 -1.640625 L 6.28125 -0.03125 C 5.445312 0.125 4.816406 0.203125 4.390625 0.203125 C 3.335938 0.203125 2.613281 -0.0351562 2.21875 -0.515625 C 1.832031 -0.992188 1.640625 -1.898438 1.640625 -3.234375 L 1.640625 -7.53125 L 0.46875 -7.53125 L 0.46875 -9.25 L 1.640625 -9.25 L 1.640625 -11.9375 L 3.640625 -11.9375 L 3.640625 -9.25 L 6.203125 -9.25 Z M 6.203125 -7.53125 "/></g></g></g><g fill="#c40a6e" fill-opacity="1"><g transform="translate(78.579909, 20.568976)"><g><path d="M 7.8125 -1.671875 L 8.328125 -1.71875 L 8.375 -0.21875 C 6.96875 0.0625 5.71875 0.203125 4.625 0.203125 C 3.257812 0.203125 2.273438 -0.171875 1.671875 -0.921875 C 1.078125 -1.679688 0.78125 -2.882812 0.78125 -4.53125 C 0.78125 -7.820312 2.117188 -9.46875 4.796875 -9.46875 C 7.390625 -9.46875 8.6875 -8.050781 8.6875 -5.21875 L 8.546875 -3.78125 L 2.8125 -3.78125 C 2.820312 -3.007812 2.988281 -2.445312 3.3125 -2.09375 C 3.632812 -1.738281 4.234375 -1.5625 5.109375 -1.5625 C 5.984375 -1.5625 6.882812 -1.597656 7.8125 -1.671875 Z M 6.703125 -5.328125 C 6.703125 -6.242188 6.554688 -6.882812 6.265625 -7.25 C 5.972656 -7.613281 5.484375 -7.796875 4.796875 -7.796875 C 4.109375 -7.796875 3.601562 -7.601562 3.28125 -7.21875 C 2.96875 -6.832031 2.804688 -6.203125 2.796875 -5.328125 Z M 6.703125 -5.328125 "/></g></g></g><g fill="#c40a6e" fill-opacity="1"><g transform="translate(91.939082, 20.568976)"><g><path d="M 4.6875 -9.46875 C 5.34375 -9.46875 6.113281 -9.378906 7 -9.203125 L 7.46875 -9.109375 L 7.390625 -7.515625 C 6.410156 -7.617188 5.6875 -7.671875 5.21875 -7.671875 C 4.28125 -7.671875 3.648438 -7.457031 3.328125 -7.03125 C 3.003906 -6.613281 2.84375 -5.820312 2.84375 -4.65625 C 2.84375 -3.5 3 -2.695312 3.3125 -2.25 C 3.625 -1.8125 4.265625 -1.59375 5.234375 -1.59375 L 7.40625 -1.734375 L 7.46875 -0.125 C 6.21875 0.09375 5.273438 0.203125 4.640625 0.203125 C 3.234375 0.203125 2.242188 -0.175781 1.671875 -0.9375 C 1.097656 -1.695312 0.8125 -2.941406 0.8125 -4.671875 C 0.8125 -6.398438 1.113281 -7.628906 1.71875 -8.359375 C 2.320312 -9.097656 3.3125 -9.46875 4.6875 -9.46875 Z M 4.6875 -9.46875 "/></g></g></g><g fill="#c40a6e" fill-opacity="1"><g transform="translate(104.077389, 20.568976)"><g><path d="M 3.234375 0 L 1.21875 0 L 1.21875 -13.109375 L 3.234375 -13.109375 L 3.234375 -8.78125 C 4.148438 -9.238281 5 -9.46875 5.78125 -9.46875 C 7.007812 -9.46875 7.847656 -9.117188 8.296875 -8.421875 C 8.753906 -7.722656 8.984375 -6.570312 8.984375 -4.96875 L 8.984375 0 L 6.96875 0 L 6.96875 -4.90625 C 6.96875 -5.90625 6.859375 -6.613281 6.640625 -7.03125 C 6.429688 -7.457031 5.988281 -7.671875 5.3125 -7.671875 C 4.71875 -7.671875 4.125 -7.570312 3.53125 -7.375 L 3.234375 -7.265625 Z M 3.234375 0 "/></g></g></g><g fill="#c40a6e" fill-opacity="1"><g transform="translate(118.139479, 20.568976)"><g><path d="M 3.234375 0 L 1.21875 0 L 1.21875 -9.25 L 3.21875 -9.25 L 3.21875 -8.6875 C 4.125 -9.207031 4.976562 -9.46875 5.78125 -9.46875 C 7.007812 -9.46875 7.847656 -9.117188 8.296875 -8.421875 C 8.753906 -7.722656 8.984375 -6.570312 8.984375 -4.96875 L 8.984375 0 L 6.984375 0 L 6.984375 -4.90625 C 6.984375 -5.90625 6.875 -6.613281 6.65625 -7.03125 C 6.4375 -7.457031 5.992188 -7.671875 5.328125 -7.671875 C 4.703125 -7.671875 4.097656 -7.546875 3.515625 -7.296875 L 3.234375 -7.1875 Z M 3.234375 0 "/></g></g></g><g fill="#c40a6e" fill-opacity="1"><g transform="translate(132.201569, 20.568976)"><g><path d="M 1.21875 0 L 1.21875 -9.25 L 3.234375 -9.25 L 3.234375 0 Z M 1.21875 -10.828125 L 1.21875 -12.953125 L 3.234375 -12.953125 L 3.234375 -10.828125 Z M 1.21875 -10.828125 "/></g></g></g><g fill="#c40a6e" fill-opacity="1"><g transform="translate(140.621765, 20.568976)"><g><path d="M 3.234375 0 L 1.21875 0 L 1.21875 -13.109375 L 3.234375 -13.109375 L 3.234375 -5.53125 L 4.390625 -5.640625 L 6.578125 -9.25 L 8.828125 -9.25 L 6.171875 -4.921875 L 8.984375 0 L 6.703125 0 L 4.4375 -3.90625 L 3.234375 -3.78125 Z M 3.234375 0 "/></g></g></g><g fill="#c40a6e" fill-opacity="1"><g transform="translate(153.814447, 20.568976)"><g/></g></g><g fill="#1d04b4" fill-opacity="1"><g transform="translate(161.846753, 20.568976)"><g><path d="M 1.125 -4.078125 L 1.125 -5.90625 L 6.671875 -5.90625 L 6.671875 -4.078125 Z M 1.125 -4.078125 "/></g></g></g><g fill="#c40a6e" fill-opacity="1"><g transform="translate(173.618239, 20.568976)"><g/></g></g><g fill="#c40a6e" fill-opacity="1"><g transform="translate(181.649983, 20.568976)"><g><path d="M 6.625 -4.84375 L 6.625 -6.671875 L 10.234375 -6.671875 L 10.234375 -0.21875 C 9.898438 -0.132812 9.222656 -0.046875 8.203125 0.046875 C 7.191406 0.148438 6.457031 0.203125 6 0.203125 C 4.070312 0.203125 2.742188 -0.328125 2.015625 -1.390625 C 1.285156 -2.453125 0.921875 -4.113281 0.921875 -6.375 C 0.921875 -8.644531 1.296875 -10.296875 2.046875 -11.328125 C 2.796875 -12.367188 4.085938 -12.890625 5.921875 -12.890625 C 7.003906 -12.890625 8.226562 -12.765625 9.59375 -12.515625 L 10.234375 -12.390625 L 10.171875 -10.75 C 8.671875 -10.945312 7.328125 -11.046875 6.140625 -11.046875 C 4.960938 -11.046875 4.15625 -10.710938 3.71875 -10.046875 C 3.28125 -9.378906 3.0625 -8.144531 3.0625 -6.34375 C 3.0625 -4.539062 3.265625 -3.296875 3.671875 -2.609375 C 4.085938 -1.929688 4.925781 -1.59375 6.1875 -1.59375 C 7.082031 -1.59375 7.753906 -1.648438 8.203125 -1.765625 L 8.203125 -4.84375 Z M 6.625 -4.84375 "/></g></g></g><g fill="#c40a6e" fill-opacity="1"><g transform="translate(196.951436, 20.568976)"><g><path d="M 1.328125 0 L 1.328125 -13.109375 L 3.34375 -13.109375 L 3.34375 0 Z M 1.328125 0 "/></g></g></g><g fill="#c40a6e" fill-opacity="1"><g transform="translate(205.593614, 20.568976)"><g><path d="M 8.078125 -6.40625 L 8.078125 -2.1875 C 8.085938 -1.914062 8.15625 -1.710938 8.28125 -1.578125 C 8.414062 -1.453125 8.617188 -1.367188 8.890625 -1.328125 L 8.828125 0.203125 C 7.765625 0.203125 6.945312 -0.0234375 6.375 -0.484375 C 5.382812 -0.0234375 4.390625 0.203125 3.390625 0.203125 C 1.546875 0.203125 0.625 -0.773438 0.625 -2.734375 C 0.625 -3.671875 0.875 -4.347656 1.375 -4.765625 C 1.875 -5.191406 2.644531 -5.445312 3.6875 -5.53125 L 6.078125 -5.734375 L 6.078125 -6.40625 C 6.078125 -6.894531 5.96875 -7.238281 5.75 -7.4375 C 5.53125 -7.632812 5.210938 -7.734375 4.796875 -7.734375 C 4.003906 -7.734375 3.015625 -7.6875 1.828125 -7.59375 L 1.234375 -7.546875 L 1.171875 -8.984375 C 2.515625 -9.304688 3.75 -9.46875 4.875 -9.46875 C 6.007812 -9.46875 6.828125 -9.222656 7.328125 -8.734375 C 7.828125 -8.242188 8.078125 -7.46875 8.078125 -6.40625 Z M 3.921875 -4.109375 C 3.066406 -4.035156 2.640625 -3.570312 2.640625 -2.71875 C 2.640625 -1.863281 3.019531 -1.4375 3.78125 -1.4375 C 4.394531 -1.4375 5.046875 -1.535156 5.734375 -1.734375 L 6.078125 -1.84375 L 6.078125 -4.3125 Z M 3.921875 -4.109375 "/></g></g></g><g fill="#c40a6e" fill-opacity="1"><g transform="translate(218.934291, 20.568976)"><g><path d="M 7.640625 -7.34375 C 6.191406 -7.539062 5.140625 -7.640625 4.484375 -7.640625 C 3.828125 -7.640625 3.367188 -7.5625 3.109375 -7.40625 C 2.859375 -7.257812 2.734375 -7.019531 2.734375 -6.6875 C 2.734375 -6.351562 2.875 -6.117188 3.15625 -5.984375 C 3.4375 -5.847656 4.09375 -5.6875 5.125 -5.5 C 6.15625 -5.320312 6.882812 -5.039062 7.3125 -4.65625 C 7.75 -4.28125 7.96875 -3.601562 7.96875 -2.625 C 7.96875 -1.65625 7.65625 -0.941406 7.03125 -0.484375 C 6.40625 -0.0234375 5.492188 0.203125 4.296875 0.203125 C 3.546875 0.203125 2.59375 0.0976562 1.4375 -0.109375 L 0.875 -0.203125 L 0.9375 -1.890625 C 2.425781 -1.691406 3.492188 -1.59375 4.140625 -1.59375 C 4.796875 -1.59375 5.265625 -1.671875 5.546875 -1.828125 C 5.828125 -1.992188 5.96875 -2.257812 5.96875 -2.625 C 5.96875 -3 5.832031 -3.253906 5.5625 -3.390625 C 5.300781 -3.535156 4.664062 -3.691406 3.65625 -3.859375 C 2.644531 -4.023438 1.90625 -4.285156 1.4375 -4.640625 C 0.96875 -5.003906 0.734375 -5.660156 0.734375 -6.609375 C 0.734375 -7.554688 1.054688 -8.265625 1.703125 -8.734375 C 2.359375 -9.203125 3.191406 -9.4375 4.203125 -9.4375 C 4.992188 -9.4375 5.960938 -9.335938 7.109375 -9.140625 L 7.6875 -9.03125 Z M 7.640625 -7.34375 "/></g></g></g><g fill="#c40a6e" fill-opacity="1"><g transform="translate(231.572029, 20.568976)"><g><path d="M 3.640625 -7.53125 L 3.640625 0 L 1.640625 0 L 1.640625 -7.53125 L 0.578125 -7.53125 L 0.578125 -9.25 L 1.640625 -9.25 L 1.640625 -9.84375 C 1.640625 -11.164062 1.832031 -12.070312 2.21875 -12.5625 C 2.601562 -13.0625 3.285156 -13.3125 4.265625 -13.3125 L 6.265625 -13.125 L 6.234375 -11.484375 C 5.628906 -11.503906 5.125 -11.515625 4.71875 -11.515625 C 4.320312 -11.515625 4.039062 -11.394531 3.875 -11.15625 C 3.71875 -10.914062 3.640625 -10.472656 3.640625 -9.828125 L 3.640625 -9.25 L 6.09375 -9.25 L 6.09375 -7.53125 Z M 3.640625 -7.53125 "/></g></g></g><g fill="#c40a6e" fill-opacity="1"><g transform="translate(241.934527, 20.568976)"><g><path d="M 8.078125 -6.40625 L 8.078125 -2.1875 C 8.085938 -1.914062 8.15625 -1.710938 8.28125 -1.578125 C 8.414062 -1.453125 8.617188 -1.367188 8.890625 -1.328125 L 8.828125 0.203125 C 7.765625 0.203125 6.945312 -0.0234375 6.375 -0.484375 C 5.382812 -0.0234375 4.390625 0.203125 3.390625 0.203125 C 1.546875 0.203125 0.625 -0.773438 0.625 -2.734375 C 0.625 -3.671875 0.875 -4.347656 1.375 -4.765625 C 1.875 -5.191406 2.644531 -5.445312 3.6875 -5.53125 L 6.078125 -5.734375 L 6.078125 -6.40625 C 6.078125 -6.894531 5.96875 -7.238281 5.75 -7.4375 C 5.53125 -7.632812 5.210938 -7.734375 4.796875 -7.734375 C 4.003906 -7.734375 3.015625 -7.6875 1.828125 -7.59375 L 1.234375 -7.546875 L 1.171875 -8.984375 C 2.515625 -9.304688 3.75 -9.46875 4.875 -9.46875 C 6.007812 -9.46875 6.828125 -9.222656 7.328125 -8.734375 C 7.828125 -8.242188 8.078125 -7.46875 8.078125 -6.40625 Z M 3.921875 -4.109375 C 3.066406 -4.035156 2.640625 -3.570312 2.640625 -2.71875 C 2.640625 -1.863281 3.019531 -1.4375 3.78125 -1.4375 C 4.394531 -1.4375 5.046875 -1.535156 5.734375 -1.734375 L 6.078125 -1.84375 L 6.078125 -4.3125 Z M 3.921875 -4.109375 "/></g></g></g><g fill="#c40a6e" fill-opacity="1"><g transform="translate(255.275204, 20.568976)"><g><path d="M 7.640625 -7.34375 C 6.191406 -7.539062 5.140625 -7.640625 4.484375 -7.640625 C 3.828125 -7.640625 3.367188 -7.5625 3.109375 -7.40625 C 2.859375 -7.257812 2.734375 -7.019531 2.734375 -6.6875 C 2.734375 -6.351562 2.875 -6.117188 3.15625 -5.984375 C 3.4375 -5.847656 4.09375 -5.6875 5.125 -5.5 C 6.15625 -5.320312 6.882812 -5.039062 7.3125 -4.65625 C 7.75 -4.28125 7.96875 -3.601562 7.96875 -2.625 C 7.96875 -1.65625 7.65625 -0.941406 7.03125 -0.484375 C 6.40625 -0.0234375 5.492188 0.203125 4.296875 0.203125 C 3.546875 0.203125 2.59375 0.0976562 1.4375 -0.109375 L 0.875 -0.203125 L 0.9375 -1.890625 C 2.425781 -1.691406 3.492188 -1.59375 4.140625 -1.59375 C 4.796875 -1.59375 5.265625 -1.671875 5.546875 -1.828125 C 5.828125 -1.992188 5.96875 -2.257812 5.96875 -2.625 C 5.96875 -3 5.832031 -3.253906 5.5625 -3.390625 C 5.300781 -3.535156 4.664062 -3.691406 3.65625 -3.859375 C 2.644531 -4.023438 1.90625 -4.285156 1.4375 -4.640625 C 0.96875 -5.003906 0.734375 -5.660156 0.734375 -6.609375 C 0.734375 -7.554688 1.054688 -8.265625 1.703125 -8.734375 C 2.359375 -9.203125 3.191406 -9.4375 4.203125 -9.4375 C 4.992188 -9.4375 5.960938 -9.335938 7.109375 -9.140625 L 7.6875 -9.03125 Z M 7.640625 -7.34375 "/></g></g></g><g fill="#c40a6e" fill-opacity="1"><g transform="translate(267.912942, 20.568976)"><g><path d="M 7.8125 -1.671875 L 8.328125 -1.71875 L 8.375 -0.21875 C 6.96875 0.0625 5.71875 0.203125 4.625 0.203125 C 3.257812 0.203125 2.273438 -0.171875 1.671875 -0.921875 C 1.078125 -1.679688 0.78125 -2.882812 0.78125 -4.53125 C 0.78125 -7.820312 2.117188 -9.46875 4.796875 -9.46875 C 7.390625 -9.46875 8.6875 -8.050781 8.6875 -5.21875 L 8.546875 -3.78125 L 2.8125 -3.78125 C 2.820312 -3.007812 2.988281 -2.445312 3.3125 -2.09375 C 3.632812 -1.738281 4.234375 -1.5625 5.109375 -1.5625 C 5.984375 -1.5625 6.882812 -1.597656 7.8125 -1.671875 Z M 6.703125 -5.328125 C 6.703125 -6.242188 6.554688 -6.882812 6.265625 -7.25 C 5.972656 -7.613281 5.484375 -7.796875 4.796875 -7.796875 C 4.109375 -7.796875 3.601562 -7.601562 3.28125 -7.21875 C 2.96875 -6.832031 2.804688 -6.203125 2.796875 -5.328125 Z M 6.703125 -5.328125 "/></g></g></g><g fill="#c40a6e" fill-opacity="1"><g transform="translate(281.272116, 20.568976)"><g><path d="M 1.21875 0 L 1.21875 -9.25 L 3.21875 -9.25 L 3.21875 -8.140625 C 4.269531 -8.828125 5.320312 -9.269531 6.375 -9.46875 L 6.375 -7.4375 C 5.3125 -7.226562 4.398438 -6.957031 3.640625 -6.625 L 3.234375 -6.46875 L 3.234375 0 Z M 1.21875 0 "/></g></g></g><g fill="#c40a6e" fill-opacity="1"><g transform="translate(291.912085, 20.568976)"><g><path d="M 6.203125 -7.53125 L 3.640625 -7.53125 L 3.640625 -3.46875 C 3.640625 -2.707031 3.695312 -2.203125 3.8125 -1.953125 C 3.925781 -1.710938 4.210938 -1.59375 4.671875 -1.59375 L 6.1875 -1.640625 L 6.28125 -0.03125 C 5.445312 0.125 4.816406 0.203125 4.390625 0.203125 C 3.335938 0.203125 2.613281 -0.0351562 2.21875 -0.515625 C 1.832031 -0.992188 1.640625 -1.898438 1.640625 -3.234375 L 1.640625 -7.53125 L 0.46875 -7.53125 L 0.46875 -9.25 L 1.640625 -9.25 L 1.640625 -11.9375 L 3.640625 -11.9375 L 3.640625 -9.25 L 6.203125 -9.25 Z M 6.203125 -7.53125 "/></g></g></g><g fill="#c40a6e" fill-opacity="1"><g transform="translate(302.496542, 20.568976)"><g><path d="M 7.8125 -1.671875 L 8.328125 -1.71875 L 8.375 -0.21875 C 6.96875 0.0625 5.71875 0.203125 4.625 0.203125 C 3.257812 0.203125 2.273438 -0.171875 1.671875 -0.921875 C 1.078125 -1.679688 0.78125 -2.882812 0.78125 -4.53125 C 0.78125 -7.820312 2.117188 -9.46875 4.796875 -9.46875 C 7.390625 -9.46875 8.6875 -8.050781 8.6875 -5.21875 L 8.546875 -3.78125 L 2.8125 -3.78125 C 2.820312 -3.007812 2.988281 -2.445312 3.3125 -2.09375 C 3.632812 -1.738281 4.234375 -1.5625 5.109375 -1.5625 C 5.984375 -1.5625 6.882812 -1.597656 7.8125 -1.671875 Z M 6.703125 -5.328125 C 6.703125 -6.242188 6.554688 -6.882812 6.265625 -7.25 C 5.972656 -7.613281 5.484375 -7.796875 4.796875 -7.796875 C 4.109375 -7.796875 3.601562 -7.601562 3.28125 -7.21875 C 2.96875 -6.832031 2.804688 -6.203125 2.796875 -5.328125 Z M 6.703125 -5.328125 "/></g></g></g><g fill="#c40a6e" fill-opacity="1"><g transform="translate(315.855715, 20.568976)"><g><path d="M 4.6875 -9.46875 C 5.34375 -9.46875 6.113281 -9.378906 7 -9.203125 L 7.46875 -9.109375 L 7.390625 -7.515625 C 6.410156 -7.617188 5.6875 -7.671875 5.21875 -7.671875 C 4.28125 -7.671875 3.648438 -7.457031 3.328125 -7.03125 C 3.003906 -6.613281 2.84375 -5.820312 2.84375 -4.65625 C 2.84375 -3.5 3 -2.695312 3.3125 -2.25 C 3.625 -1.8125 4.265625 -1.59375 5.234375 -1.59375 L 7.40625 -1.734375 L 7.46875 -0.125 C 6.21875 0.09375 5.273438 0.203125 4.640625 0.203125 C 3.234375 0.203125 2.242188 -0.175781 1.671875 -0.9375 C 1.097656 -1.695312 0.8125 -2.941406 0.8125 -4.671875 C 0.8125 -6.398438 1.113281 -7.628906 1.71875 -8.359375 C 2.320312 -9.097656 3.3125 -9.46875 4.6875 -9.46875 Z M 4.6875 -9.46875 "/></g></g></g><g fill="#c40a6e" fill-opacity="1"><g transform="translate(327.994022, 20.568976)"><g><path d="M 3.234375 0 L 1.21875 0 L 1.21875 -13.109375 L 3.234375 -13.109375 L 3.234375 -8.78125 C 4.148438 -9.238281 5 -9.46875 5.78125 -9.46875 C 7.007812 -9.46875 7.847656 -9.117188 8.296875 -8.421875 C 8.753906 -7.722656 8.984375 -6.570312 8.984375 -4.96875 L 8.984375 0 L 6.96875 0 L 6.96875 -4.90625 C 6.96875 -5.90625 6.859375 -6.613281 6.640625 -7.03125 C 6.429688 -7.457031 5.988281 -7.671875 5.3125 -7.671875 C 4.71875 -7.671875 4.125 -7.570312 3.53125 -7.375 L 3.234375 -7.265625 Z M 3.234375 0 "/></g></g></g><g fill="#c40a6e" fill-opacity="1"><g transform="translate(342.056112, 20.568976)"><g><path d="M 3.234375 0 L 1.21875 0 L 1.21875 -9.25 L 3.21875 -9.25 L 3.21875 -8.6875 C 4.125 -9.207031 4.976562 -9.46875 5.78125 -9.46875 C 7.007812 -9.46875 7.847656 -9.117188 8.296875 -8.421875 C 8.753906 -7.722656 8.984375 -6.570312 8.984375 -4.96875 L 8.984375 0 L 6.984375 0 L 6.984375 -4.90625 C 6.984375 -5.90625 6.875 -6.613281 6.65625 -7.03125 C 6.4375 -7.457031 5.992188 -7.671875 5.328125 -7.671875 C 4.703125 -7.671875 4.097656 -7.546875 3.515625 -7.296875 L 3.234375 -7.1875 Z M 3.234375 0 "/></g></g></g><g fill="#c40a6e" fill-opacity="1"><g transform="translate(356.118202, 20.568976)"><g><path d="M 1.21875 0 L 1.21875 -9.25 L 3.234375 -9.25 L 3.234375 0 Z M 1.21875 -10.828125 L 1.21875 -12.953125 L 3.234375 -12.953125 L 3.234375 -10.828125 Z M 1.21875 -10.828125 "/></g></g></g><g fill="#c40a6e" fill-opacity="1"><g transform="translate(364.538398, 20.568976)"><g><path d="M 3.234375 0 L 1.21875 0 L 1.21875 -13.109375 L 3.234375 -13.109375 L 3.234375 -5.53125 L 4.390625 -5.640625 L 6.578125 -9.25 L 8.828125 -9.25 L 6.171875 -4.921875 L 8.984375 0 L 6.703125 0 L 4.4375 -3.90625 L 3.234375 -3.78125 Z M 3.234375 0 "/></g></g></g></g></g></g><g clip-path="url(#e520e06f3e)"><g transform="matrix(1, 0, 0, 1, 0.000000000000000111, 10)"><g clip-path="url(#b7f2f36a5f)"><g fill="#1d04b4" fill-opacity="1"><g transform="translate(1.043485, 33.073453)"><g><path d="M 32.953125 -5.875 C 32.953125 -4.257812 32.367188 -2.867188 31.203125 -1.703125 C 30.066406 -0.566406 28.691406 0 27.078125 0 L 0 0 L 0 -2.9375 L 27.078125 -2.9375 C 27.867188 -2.9375 28.554688 -3.226562 29.140625 -3.8125 C 29.722656 -4.394531 30.015625 -5.082031 30.015625 -5.875 C 30.015625 -6.695312 29.722656 -7.390625 29.140625 -7.953125 C 28.554688 -8.523438 27.867188 -8.8125 27.078125 -8.8125 L 5.875 -8.8125 C 4.238281 -8.8125 2.847656 -9.378906 1.703125 -10.515625 C 0.566406 -11.660156 0 -13.066406 0 -14.734375 C 0 -16.347656 0.566406 -17.722656 1.703125 -18.859375 C 2.867188 -20.023438 4.257812 -20.609375 5.875 -20.609375 L 31.203125 -20.609375 L 31.203125 -17.625 L 5.875 -17.625 C 5.082031 -17.625 4.394531 -17.335938 3.8125 -16.765625 C 3.226562 -16.203125 2.9375 -15.523438 2.9375 -14.734375 C 2.9375 -13.910156 3.226562 -13.210938 3.8125 -12.640625 C 4.394531 -12.078125 5.082031 -11.796875 5.875 -11.796875 L 27.078125 -11.796875 C 28.660156 -11.796875 30.035156 -11.210938 31.203125 -10.046875 C 32.367188 -8.878906 32.953125 -7.488281 32.953125 -5.875 Z M 32.953125 -5.875 "/></g></g></g><g fill="#1d04b4" fill-opacity="1"><g transform="translate(37.960496, 33.073453)"><g><path d="M 31.765625 0 L 31.765625 -12.9375 C 31.765625 -14.207031 31.300781 -15.304688 30.375 -16.234375 C 29.445312 -17.160156 28.347656 -17.625 27.078125 -17.625 L 23.546875 -17.625 C 22.242188 -17.625 21.128906 -17.160156 20.203125 -16.234375 C 19.273438 -15.304688 18.8125 -14.207031 18.8125 -12.9375 L 18.8125 0 L 15.875 0 L 15.875 -12.9375 C 15.875 -14.207031 15.410156 -15.304688 14.484375 -16.234375 C 13.566406 -17.160156 12.472656 -17.625 11.203125 -17.625 L 7.65625 -17.625 C 6.363281 -17.625 5.253906 -17.160156 4.328125 -16.234375 C 3.398438 -15.304688 2.9375 -14.207031 2.9375 -12.9375 L 2.9375 0 L 0 0 L 0 -12.9375 C 0 -15.0625 0.738281 -16.863281 2.21875 -18.34375 C 3.726562 -19.851562 5.539062 -20.609375 7.65625 -20.609375 L 11.203125 -20.609375 C 13.796875 -20.609375 15.84375 -19.5625 17.34375 -17.46875 C 18.882812 -19.5625 20.953125 -20.609375 23.546875 -20.609375 L 27.078125 -20.609375 C 29.171875 -20.609375 30.957031 -19.851562 32.4375 -18.34375 C 33.945312 -16.863281 34.703125 -15.0625 34.703125 -12.9375 L 34.703125 0 Z M 31.765625 0 "/></g></g></g><g fill="#1d04b4" fill-opacity="1"><g transform="translate(76.624123, 33.073453)"><g><path d="M 30.015625 0 L 29.96875 -12.9375 C 29.96875 -14.207031 29.507812 -15.304688 28.59375 -16.234375 C 27.664062 -17.160156 26.566406 -17.625 25.296875 -17.625 L 7.65625 -17.625 C 6.363281 -17.625 5.253906 -17.160156 4.328125 -16.234375 C 3.429688 -15.335938 2.984375 -14.238281 2.984375 -12.9375 L 2.9375 -7.65625 C 2.9375 -6.363281 3.398438 -5.253906 4.328125 -4.328125 C 5.253906 -3.398438 6.363281 -2.9375 7.65625 -2.9375 L 25.890625 -2.9375 L 25.890625 0 L 7.65625 0 C 5.570312 0 3.757812 -0.738281 2.21875 -2.21875 C 0.738281 -3.757812 0 -5.570312 0 -7.65625 L 0 -12.9375 C 0 -15.0625 0.738281 -16.863281 2.21875 -18.34375 C 3.726562 -19.851562 5.539062 -20.609375 7.65625 -20.609375 L 25.296875 -20.609375 C 27.410156 -20.609375 29.207031 -19.851562 30.6875 -18.34375 C 32.195312 -16.863281 32.953125 -15.0625 32.953125 -12.9375 L 32.953125 0 Z M 30.015625 0 "/></g></g></g></g></g></g><g clip-path="url(#4948cd5391)"><g transform="matrix(1, 0, 0, 1, 189, 10)"><g clip-path="url(#73580e6d94)"><g clip-path="url(#3ffb5617e0)"><g fill="#c40a6e" fill-opacity="1"><g transform="translate(0.309353, 33.073453)"><g><path d="M 32.953125 -14.734375 C 32.953125 -13.085938 32.367188 -11.679688 31.203125 -10.515625 C 30.066406 -9.378906 28.691406 -8.8125 27.078125 -8.8125 L 5.28125 -8.8125 L 5.28125 -11.796875 L 27.078125 -11.796875 C 27.867188 -11.796875 28.554688 -12.078125 29.140625 -12.640625 C 29.722656 -13.210938 30.015625 -13.910156 30.015625 -14.734375 C 30.015625 -15.523438 29.722656 -16.203125 29.140625 -16.765625 C 28.554688 -17.335938 27.867188 -17.625 27.078125 -17.625 L 7.65625 -17.625 C 6.363281 -17.625 5.253906 -17.160156 4.328125 -16.234375 C 3.429688 -15.335938 2.984375 -14.238281 2.984375 -12.9375 L 2.9375 -7.65625 C 2.9375 -6.363281 3.398438 -5.253906 4.328125 -4.328125 C 5.253906 -3.398438 6.363281 -2.9375 7.65625 -2.9375 L 31.203125 -2.9375 L 31.203125 0 L 7.65625 0 C 5.570312 0 3.757812 -0.738281 2.21875 -2.21875 C 0.738281 -3.757812 0 -5.570312 0 -7.65625 L 0 -12.9375 C 0 -15.0625 0.738281 -16.863281 2.21875 -18.34375 C 3.726562 -19.851562 5.539062 -20.609375 7.65625 -20.609375 L 27.078125 -20.609375 C 28.660156 -20.609375 30.035156 -20.023438 31.203125 -18.859375 C 32.367188 -17.691406 32.953125 -16.316406 32.953125 -14.734375 Z M 32.953125 -14.734375 "/></g></g></g></g><g fill="#c40a6e" fill-opacity="1"><g transform="translate(37.226363, 33.073453)"><g><path d="M 7.65625 0 C 5.570312 0 3.757812 -0.738281 2.21875 -2.21875 C 0.738281 -3.757812 0 -5.570312 0 -7.65625 L 0 -12.9375 C 0 -15.0625 0.738281 -16.863281 2.21875 -18.34375 C 3.726562 -19.851562 5.539062 -20.609375 7.65625 -20.609375 L 29.421875 -20.609375 L 29.421875 -17.625 L 7.65625 -17.625 C 6.363281 -17.625 5.253906 -17.160156 4.328125 -16.234375 C 3.429688 -15.335938 2.984375 -14.238281 2.984375 -12.9375 L 2.9375 -7.65625 C 2.9375 -6.363281 3.398438 -5.253906 4.328125 -4.328125 C 5.253906 -3.398438 6.363281 -2.9375 7.65625 -2.9375 L 29.421875 -2.9375 L 29.421875 0 Z M 7.65625 0 "/></g></g></g><g fill="#c40a6e" fill-opacity="1"><g transform="translate(70.610467, 33.073453)"><g><path d="M 30.015625 0 L 30.015625 -12.9375 C 30.015625 -14.207031 29.550781 -15.304688 28.625 -16.234375 C 27.695312 -17.160156 26.585938 -17.625 25.296875 -17.625 L 7.65625 -17.625 C 6.363281 -17.625 5.253906 -17.160156 4.328125 -16.234375 C 3.398438 -15.304688 2.9375 -14.207031 2.9375 -12.9375 L 2.9375 0 L 0 0 L 0 -12.9375 C 0 -14.925781 0.675781 -16.660156 2.03125 -18.140625 C 3.457031 -19.648438 5.132812 -20.457031 7.0625 -20.5625 L 7.0625 -25.890625 L 10 -25.890625 L 10 -20.609375 L 25.296875 -20.609375 C 27.410156 -20.609375 29.207031 -19.851562 30.6875 -18.34375 C 32.195312 -16.863281 32.953125 -15.0625 32.953125 -12.9375 L 32.953125 0 Z M 30.015625 0 "/></g></g></g><g fill="#c40a6e" fill-opacity="1"><g transform="translate(107.527477, 33.073453)"><g><path d="M 30.015625 0 L 30.015625 -12.9375 C 30.015625 -14.207031 29.550781 -15.304688 28.625 -16.234375 C 27.695312 -17.160156 26.585938 -17.625 25.296875 -17.625 L 7.65625 -17.625 C 6.363281 -17.625 5.253906 -17.160156 4.328125 -16.234375 C 3.398438 -15.304688 2.9375 -14.207031 2.9375 -12.9375 L 2.9375 0 L 0 0 L 0 -12.9375 C 0 -15.0625 0.738281 -16.863281 2.21875 -18.34375 C 3.726562 -19.851562 5.539062 -20.609375 7.65625 -20.609375 L 25.296875 -20.609375 C 27.410156 -20.609375 29.207031 -19.851562 30.6875 -18.34375 C 32.195312 -16.863281 32.953125 -15.0625 32.953125 -12.9375 L 32.953125 0 Z M 30.015625 0 "/></g></g></g><g fill="#c40a6e" fill-opacity="1"><g transform="translate(144.444488, 33.073453)"><g><path d="M 0 -22.953125 L 0 -25.890625 L 2.9375 -25.890625 L 2.9375 -22.953125 Z M 0 0 L 0 -20.609375 L 2.9375 -20.609375 L 2.9375 0 Z M 0 0 "/></g></g></g><g fill="#c40a6e" fill-opacity="1"><g transform="translate(151.351545, 33.073453)"><g><path d="M 30.015625 0 L 30.015625 -4.125 C 30.015625 -5.394531 29.550781 -6.492188 28.625 -7.421875 C 27.695312 -8.347656 26.585938 -8.8125 25.296875 -8.8125 L 7.65625 -8.8125 C 5.695312 -8.8125 4.125 -9.59375 2.9375 -11.15625 L 2.9375 0 L 0 0 L 0 -25.890625 L 2.9375 -25.890625 L 2.9375 -18.265625 C 4.125 -19.828125 5.695312 -20.609375 7.65625 -20.609375 L 29.421875 -20.609375 L 29.421875 -17.625 L 7.65625 -17.625 C 6.84375 -17.625 6.148438 -17.335938 5.578125 -16.765625 C 5.003906 -16.203125 4.71875 -15.523438 4.71875 -14.734375 C 4.71875 -13.910156 5.003906 -13.210938 5.578125 -12.640625 C 6.148438 -12.078125 6.84375 -11.796875 7.65625 -11.796875 L 25.296875 -11.796875 C 27.410156 -11.796875 29.207031 -11.039062 30.6875 -9.53125 C 32.195312 -8.050781 32.953125 -6.25 32.953125 -4.125 L 32.953125 0 Z M 30.015625 0 "/></g></g></g></g></g></g><g clip-path="url(#5b05f06457)"><g transform="matrix(1, 0, 0, 1, 156, 0)"><g clip-path="url(#3bcef82259)"><g clip-path="url(#ff5d055813)"><g fill="#c40a6e" fill-opacity="1"><g transform="translate(0.613853, 42.901367)"><g><path d="M 29.265625 -29.671875 C 27.585938 -29.671875 26.148438 -29.070312 24.953125 -27.875 C 23.785156 -26.71875 23.203125 -25.28125 23.203125 -23.5625 L 23.203125 0 L 19.40625 0 L 19.40625 -23.5625 C 19.40625 -25.238281 18.804688 -26.675781 17.609375 -27.875 C 16.410156 -29.070312 14.988281 -29.671875 13.34375 -29.671875 L 0 -29.671875 L 0 -33.46875 L 13.34375 -33.46875 C 16.664062 -33.46875 19.320312 -32.117188 21.3125 -29.421875 C 23.289062 -32.117188 25.941406 -33.46875 29.265625 -33.46875 L 42.609375 -33.46875 L 42.609375 -29.671875 Z M 29.265625 -29.671875 "/></g></g></g></g></g></g></g><g transform="matrix(1, 0, 0, 1, 114, 6)"><g clip-path="url(#692dc0ad77)"><g clip-path="url(#a2c1e4ad49)"><g fill="#1d04b4" fill-opacity="1"><g transform="translate(0.878164, 42.679495)"><g><path d="M 42.609375 -21.3125 C 42.609375 -18.570312 41.632812 -16.226562 39.6875 -14.28125 C 37.769531 -12.351562 35.441406 -11.390625 32.703125 -11.390625 L 14.484375 -11.390625 C 13.421875 -11.390625 12.519531 -11.019531 11.78125 -10.28125 C 11.039062 -9.550781 10.671875 -8.65625 10.671875 -7.59375 C 10.671875 -6.570312 11.039062 -5.679688 11.78125 -4.921875 C 12.519531 -4.171875 13.421875 -3.796875 14.484375 -3.796875 L 40.359375 -3.796875 L 40.359375 0 L 14.484375 0 C 12.328125 0 10.507812 -0.734375 9.03125 -2.203125 C 7.5625 -3.679688 6.828125 -5.476562 6.828125 -7.59375 C 6.828125 -9.71875 7.5625 -11.515625 9.03125 -12.984375 C 10.539062 -14.492188 12.359375 -15.25 14.484375 -15.25 L 32.703125 -15.25 C 34.378906 -15.25 35.800781 -15.832031 36.96875 -17 C 38.164062 -18.195312 38.765625 -19.632812 38.765625 -21.3125 L 38.765625 -23.5625 C 38.765625 -25.238281 38.164062 -26.675781 36.96875 -27.875 C 35.769531 -29.070312 34.347656 -29.671875 32.703125 -29.671875 L 9.90625 -29.671875 C 8.226562 -29.671875 6.789062 -29.070312 5.59375 -27.875 C 4.425781 -26.71875 3.84375 -25.28125 3.84375 -23.5625 L 3.796875 0 L 0 0 L 0 -23.5625 C 0 -26.300781 0.957031 -28.628906 2.875 -30.546875 C 4.820312 -32.492188 7.164062 -33.46875 9.90625 -33.46875 L 32.703125 -33.46875 C 35.441406 -33.46875 37.769531 -32.492188 39.6875 -30.546875 C 41.632812 -28.628906 42.609375 -26.300781 42.609375 -23.5625 Z M 42.609375 -21.3125 "/></g></g></g></g></g></g><g transform="matrix(1, 0, 0, 1, 146, 6)"><g clip-path="url(#1ef9fe96df)"><g clip-path="url(#ae86816d5f)"><g fill="#1d04b4" fill-opacity="1"><g transform="translate(0.275306, 42.679495)"><g><path d="M 29.265625 -29.671875 C 27.585938 -29.671875 26.148438 -29.070312 24.953125 -27.875 C 23.785156 -26.71875 23.203125 -25.28125 23.203125 -23.5625 L 23.203125 0 L 19.40625 0 L 19.40625 -23.5625 C 19.40625 -25.238281 18.804688 -26.675781 17.609375 -27.875 C 16.410156 -29.070312 14.988281 -29.671875 13.34375 -29.671875 L 0 -29.671875 L 0 -33.46875 L 13.34375 -33.46875 C 16.664062 -33.46875 19.320312 -32.117188 21.3125 -29.421875 C 23.289062 -32.117188 25.941406 -33.46875 29.265625 -33.46875 L 42.609375 -33.46875 L 42.609375 -29.671875 Z M 29.265625 -29.671875 "/></g></g></g></g></g></g></g></g></g></svg>