<svg xmlns="http://www.w3.org/2000/svg" xmlns:xlink="http://www.w3.org/1999/xlink" width="1920" zoomAndPan="magnify" viewBox="0 0 1440 809.999993" height="1080" preserveAspectRatio="xMidYMid meet" version="1.0"><defs><g/><clipPath id="ee031008fc"><path d="M 0.078125 48 L 372.800781 48 L 372.800781 76.441406 L 0.078125 76.441406 Z M 0.078125 48 " clip-rule="nonzero"/></clipPath><clipPath id="6d31cb08a4"><rect x="0" width="373" y="0" height="29"/></clipPath><clipPath id="9b7c74253b"><path d="M 0.078125 9 L 113 9 L 113 51 L 0.078125 51 Z M 0.078125 9 " clip-rule="nonzero"/></clipPath><clipPath id="aeff7b21c3"><path d="M 0.320312 12 L 33 12 L 33 33 L 0.320312 33 Z M 0.320312 12 " clip-rule="nonzero"/></clipPath><clipPath id="b75f1e42aa"><rect x="0" width="113" y="0" height="42"/></clipPath><clipPath id="fe778d4a6b"><path d="M 0.601562 12 L 34 12 L 34 33 L 0.601562 33 Z M 0.601562 12 " clip-rule="nonzero"/></clipPath><clipPath id="b66da90bc6"><rect x="0" width="187" y="0" height="42"/></clipPath><clipPath id="55c15622a7"><path d="M 153 0.359375 L 202 0.359375 L 202 53 L 153 53 Z M 153 0.359375 " clip-rule="nonzero"/></clipPath><clipPath id="ad1eb6de1a"><path d="M 0.441406 8 L 43 8 L 43 42 L 0.441406 42 Z M 0.441406 8 " clip-rule="nonzero"/></clipPath><clipPath id="81e05ea7e6"><rect x="0" width="49" y="0" height="53"/></clipPath><clipPath id="6554c2a7b6"><path d="M 0.398438 9 L 42.878906 9 L 42.878906 43 L 0.398438 43 Z M 0.398438 9 " clip-rule="nonzero"/></clipPath><clipPath id="2770531544"><rect x="0" width="43" y="0" height="54"/></clipPath><clipPath id="1b1d6a62b4"><path d="M 0.359375 9 L 42.839844 9 L 42.839844 43 L 0.359375 43 Z M 0.359375 9 " clip-rule="nonzero"/></clipPath><clipPath id="961422e8ba"><rect x="0" width="43" y="0" height="54"/></clipPath><clipPath id="747b55ee08"><rect x="0" width="373" y="0" height="77"/></clipPath></defs><g transform="matrix(1, 0, 0, 1, 532, 369)"><g clip-path="url(#747b55ee08)"><g clip-path="url(#ee031008fc)"><g transform="matrix(1, 0, 0, 1, -0.000000000000113687, 48)"><g clip-path="url(#6d31cb08a4)"><g fill="#c40a6e" fill-opacity="1"><g transform="translate(0.124979, 19.931212)"><g><path d="M 5.765625 0 L 1.4375 0 L 1.4375 -12.484375 L 5.765625 -12.484375 C 7.679688 -12.484375 8.992188 -12 9.703125 -11.03125 C 10.410156 -10.0625 10.765625 -8.535156 10.765625 -6.453125 C 10.765625 -5.398438 10.691406 -4.503906 10.546875 -3.765625 C 10.410156 -3.023438 10.164062 -2.359375 9.8125 -1.765625 C 9.113281 -0.585938 7.765625 0 5.765625 0 Z M 8.65625 -6.453125 C 8.65625 -7.960938 8.46875 -9.050781 8.09375 -9.71875 C 7.71875 -10.382812 6.941406 -10.71875 5.765625 -10.71875 L 3.46875 -10.71875 L 3.46875 -1.78125 L 5.765625 -1.78125 C 6.960938 -1.78125 7.765625 -2.226562 8.171875 -3.125 C 8.359375 -3.570312 8.484375 -4.050781 8.546875 -4.5625 C 8.617188 -5.070312 8.65625 -5.703125 8.65625 -6.453125 Z M 8.65625 -6.453125 "/></g></g></g><g fill="#c40a6e" fill-opacity="1"><g transform="translate(15.709871, 19.931212)"><g><path d="M 7.953125 -6.3125 L 7.953125 -2.15625 C 7.960938 -1.882812 8.03125 -1.6875 8.15625 -1.5625 C 8.28125 -1.4375 8.476562 -1.351562 8.75 -1.3125 L 8.703125 0.203125 C 7.648438 0.203125 6.835938 -0.0195312 6.265625 -0.46875 C 5.296875 -0.0195312 4.320312 0.203125 3.34375 0.203125 C 1.53125 0.203125 0.625 -0.765625 0.625 -2.703125 C 0.625 -3.617188 0.867188 -4.285156 1.359375 -4.703125 C 1.847656 -5.117188 2.601562 -5.367188 3.625 -5.453125 L 5.984375 -5.65625 L 5.984375 -6.3125 C 5.984375 -6.789062 5.875 -7.128906 5.65625 -7.328125 C 5.445312 -7.523438 5.132812 -7.625 4.71875 -7.625 C 3.945312 -7.625 2.976562 -7.570312 1.8125 -7.46875 L 1.21875 -7.4375 L 1.15625 -8.84375 C 2.476562 -9.15625 3.691406 -9.3125 4.796875 -9.3125 C 5.910156 -9.3125 6.710938 -9.070312 7.203125 -8.59375 C 7.703125 -8.113281 7.953125 -7.351562 7.953125 -6.3125 Z M 3.859375 -4.046875 C 3.023438 -3.972656 2.609375 -3.515625 2.609375 -2.671875 C 2.609375 -1.835938 2.976562 -1.421875 3.71875 -1.421875 C 4.320312 -1.421875 4.96875 -1.519531 5.65625 -1.71875 L 5.984375 -1.828125 L 5.984375 -4.25 Z M 3.859375 -4.046875 "/></g></g></g><g fill="#c40a6e" fill-opacity="1"><g transform="translate(28.852782, 19.931212)"><g><path d="M 6.109375 -7.421875 L 3.59375 -7.421875 L 3.59375 -3.40625 C 3.59375 -2.664062 3.644531 -2.171875 3.75 -1.921875 C 3.863281 -1.679688 4.144531 -1.5625 4.59375 -1.5625 L 6.09375 -1.625 L 6.1875 -0.03125 C 5.363281 0.125 4.742188 0.203125 4.328125 0.203125 C 3.285156 0.203125 2.570312 -0.03125 2.1875 -0.5 C 1.8125 -0.976562 1.625 -1.875 1.625 -3.1875 L 1.625 -7.421875 L 0.453125 -7.421875 L 0.453125 -9.125 L 1.625 -9.125 L 1.625 -11.765625 L 3.59375 -11.765625 L 3.59375 -9.125 L 6.109375 -9.125 Z M 6.109375 -7.421875 "/></g></g></g><g fill="#c40a6e" fill-opacity="1"><g transform="translate(39.280332, 19.931212)"><g><path d="M 7.6875 -1.640625 L 8.203125 -1.703125 L 8.234375 -0.21875 C 6.847656 0.0625 5.625 0.203125 4.5625 0.203125 C 3.207031 0.203125 2.234375 -0.164062 1.640625 -0.90625 C 1.054688 -1.65625 0.765625 -2.84375 0.765625 -4.46875 C 0.765625 -7.695312 2.082031 -9.3125 4.71875 -9.3125 C 7.269531 -9.3125 8.546875 -7.921875 8.546875 -5.140625 L 8.421875 -3.71875 L 2.765625 -3.71875 C 2.785156 -2.96875 2.953125 -2.414062 3.265625 -2.0625 C 3.578125 -1.707031 4.164062 -1.53125 5.03125 -1.53125 C 5.894531 -1.53125 6.78125 -1.566406 7.6875 -1.640625 Z M 6.59375 -5.25 C 6.59375 -6.144531 6.453125 -6.769531 6.171875 -7.125 C 5.890625 -7.488281 5.40625 -7.671875 4.71875 -7.671875 C 4.039062 -7.671875 3.546875 -7.484375 3.234375 -7.109375 C 2.921875 -6.734375 2.757812 -6.113281 2.75 -5.25 Z M 6.59375 -5.25 "/></g></g></g><g fill="#c40a6e" fill-opacity="1"><g transform="translate(52.441466, 19.931212)"><g><path d="M 3.1875 0 L 1.203125 0 L 1.203125 -9.125 L 3.171875 -9.125 L 3.171875 -8.546875 C 4.054688 -9.054688 4.894531 -9.3125 5.6875 -9.3125 C 6.90625 -9.3125 7.734375 -8.96875 8.171875 -8.28125 C 8.617188 -7.59375 8.84375 -6.460938 8.84375 -4.890625 L 8.84375 0 L 6.875 0 L 6.875 -4.828125 C 6.875 -5.816406 6.765625 -6.515625 6.546875 -6.921875 C 6.335938 -7.335938 5.90625 -7.546875 5.25 -7.546875 C 4.632812 -7.546875 4.039062 -7.425781 3.46875 -7.1875 L 3.1875 -7.078125 Z M 3.1875 0 "/></g></g></g><g fill="#c40a6e" fill-opacity="1"><g transform="translate(66.295095, 19.931212)"><g><path d="M 6.109375 -7.421875 L 3.59375 -7.421875 L 3.59375 -3.40625 C 3.59375 -2.664062 3.644531 -2.171875 3.75 -1.921875 C 3.863281 -1.679688 4.144531 -1.5625 4.59375 -1.5625 L 6.09375 -1.625 L 6.1875 -0.03125 C 5.363281 0.125 4.742188 0.203125 4.328125 0.203125 C 3.285156 0.203125 2.570312 -0.03125 2.1875 -0.5 C 1.8125 -0.976562 1.625 -1.875 1.625 -3.1875 L 1.625 -7.421875 L 0.453125 -7.421875 L 0.453125 -9.125 L 1.625 -9.125 L 1.625 -11.765625 L 3.59375 -11.765625 L 3.59375 -9.125 L 6.109375 -9.125 Z M 6.109375 -7.421875 "/></g></g></g><g fill="#c40a6e" fill-opacity="1"><g transform="translate(76.722646, 19.931212)"><g><path d="M 7.6875 -1.640625 L 8.203125 -1.703125 L 8.234375 -0.21875 C 6.847656 0.0625 5.625 0.203125 4.5625 0.203125 C 3.207031 0.203125 2.234375 -0.164062 1.640625 -0.90625 C 1.054688 -1.65625 0.765625 -2.84375 0.765625 -4.46875 C 0.765625 -7.695312 2.082031 -9.3125 4.71875 -9.3125 C 7.269531 -9.3125 8.546875 -7.921875 8.546875 -5.140625 L 8.421875 -3.71875 L 2.765625 -3.71875 C 2.785156 -2.96875 2.953125 -2.414062 3.265625 -2.0625 C 3.578125 -1.707031 4.164062 -1.53125 5.03125 -1.53125 C 5.894531 -1.53125 6.78125 -1.566406 7.6875 -1.640625 Z M 6.59375 -5.25 C 6.59375 -6.144531 6.453125 -6.769531 6.171875 -7.125 C 5.890625 -7.488281 5.40625 -7.671875 4.71875 -7.671875 C 4.039062 -7.671875 3.546875 -7.484375 3.234375 -7.109375 C 2.921875 -6.734375 2.757812 -6.113281 2.75 -5.25 Z M 6.59375 -5.25 "/></g></g></g><g fill="#c40a6e" fill-opacity="1"><g transform="translate(89.883779, 19.931212)"><g><path d="M 4.609375 -9.3125 C 5.253906 -9.3125 6.015625 -9.226562 6.890625 -9.0625 L 7.34375 -8.96875 L 7.28125 -7.40625 C 6.3125 -7.5 5.597656 -7.546875 5.140625 -7.546875 C 4.210938 -7.546875 3.59375 -7.335938 3.28125 -6.921875 C 2.96875 -6.515625 2.8125 -5.738281 2.8125 -4.59375 C 2.8125 -3.445312 2.960938 -2.65625 3.265625 -2.21875 C 3.566406 -1.78125 4.195312 -1.5625 5.15625 -1.5625 L 7.296875 -1.71875 L 7.34375 -0.125 C 6.113281 0.09375 5.191406 0.203125 4.578125 0.203125 C 3.191406 0.203125 2.210938 -0.171875 1.640625 -0.921875 C 1.078125 -1.671875 0.796875 -2.894531 0.796875 -4.59375 C 0.796875 -6.289062 1.09375 -7.5 1.6875 -8.21875 C 2.289062 -8.945312 3.265625 -9.3125 4.609375 -9.3125 Z M 4.609375 -9.3125 "/></g></g></g><g fill="#c40a6e" fill-opacity="1"><g transform="translate(101.842144, 19.931212)"><g><path d="M 3.1875 0 L 1.203125 0 L 1.203125 -12.90625 L 3.1875 -12.90625 L 3.1875 -8.640625 C 4.09375 -9.085938 4.925781 -9.3125 5.6875 -9.3125 C 6.90625 -9.3125 7.734375 -8.96875 8.171875 -8.28125 C 8.617188 -7.59375 8.84375 -6.460938 8.84375 -4.890625 L 8.84375 0 L 6.859375 0 L 6.859375 -4.828125 C 6.859375 -5.816406 6.753906 -6.515625 6.546875 -6.921875 C 6.335938 -7.335938 5.898438 -7.546875 5.234375 -7.546875 C 4.648438 -7.546875 4.066406 -7.445312 3.484375 -7.25 L 3.1875 -7.140625 Z M 3.1875 0 "/></g></g></g><g fill="#c40a6e" fill-opacity="1"><g transform="translate(115.695774, 19.931212)"><g><path d="M 3.1875 0 L 1.203125 0 L 1.203125 -9.125 L 3.171875 -9.125 L 3.171875 -8.546875 C 4.054688 -9.054688 4.894531 -9.3125 5.6875 -9.3125 C 6.90625 -9.3125 7.734375 -8.96875 8.171875 -8.28125 C 8.617188 -7.59375 8.84375 -6.460938 8.84375 -4.890625 L 8.84375 0 L 6.875 0 L 6.875 -4.828125 C 6.875 -5.816406 6.765625 -6.515625 6.546875 -6.921875 C 6.335938 -7.335938 5.90625 -7.546875 5.25 -7.546875 C 4.632812 -7.546875 4.039062 -7.425781 3.46875 -7.1875 L 3.1875 -7.078125 Z M 3.1875 0 "/></g></g></g><g fill="#c40a6e" fill-opacity="1"><g transform="translate(129.549403, 19.931212)"><g><path d="M 1.203125 0 L 1.203125 -9.125 L 3.1875 -9.125 L 3.1875 0 Z M 1.203125 -10.671875 L 1.203125 -12.765625 L 3.1875 -12.765625 L 3.1875 -10.671875 Z M 1.203125 -10.671875 "/></g></g></g><g fill="#c40a6e" fill-opacity="1"><g transform="translate(137.844776, 19.931212)"><g><path d="M 3.1875 0 L 1.203125 0 L 1.203125 -12.90625 L 3.1875 -12.90625 L 3.1875 -5.453125 L 4.328125 -5.5625 L 6.46875 -9.125 L 8.703125 -9.125 L 6.078125 -4.84375 L 8.84375 0 L 6.59375 0 L 4.375 -3.84375 L 3.1875 -3.71875 Z M 3.1875 0 "/></g></g></g><g fill="#c40a6e" fill-opacity="1"><g transform="translate(150.841886, 19.931212)"><g/></g></g><g fill="#1d04b4" fill-opacity="1"><g transform="translate(158.755119, 19.931212)"><g><path d="M 1.109375 -4.015625 L 1.109375 -5.8125 L 6.5625 -5.8125 L 6.5625 -4.015625 Z M 1.109375 -4.015625 "/></g></g></g><g fill="#c40a6e" fill-opacity="1"><g transform="translate(170.352101, 19.931212)"><g/></g></g><g fill="#c40a6e" fill-opacity="1"><g transform="translate(178.264781, 19.931212)"><g><path d="M 6.53125 -4.78125 L 6.53125 -6.5625 L 10.078125 -6.5625 L 10.078125 -0.21875 C 9.753906 -0.132812 9.085938 -0.046875 8.078125 0.046875 C 7.078125 0.148438 6.351562 0.203125 5.90625 0.203125 C 4.007812 0.203125 2.703125 -0.316406 1.984375 -1.359375 C 1.265625 -2.410156 0.90625 -4.050781 0.90625 -6.28125 C 0.90625 -8.507812 1.273438 -10.132812 2.015625 -11.15625 C 2.753906 -12.175781 4.023438 -12.6875 5.828125 -12.6875 C 6.898438 -12.6875 8.109375 -12.566406 9.453125 -12.328125 L 10.078125 -12.203125 L 10.015625 -10.59375 C 8.535156 -10.789062 7.210938 -10.890625 6.046875 -10.890625 C 4.878906 -10.890625 4.082031 -10.5625 3.65625 -9.90625 C 3.226562 -9.25 3.015625 -8.03125 3.015625 -6.25 C 3.015625 -4.476562 3.21875 -3.253906 3.625 -2.578125 C 4.03125 -1.898438 4.851562 -1.5625 6.09375 -1.5625 C 6.976562 -1.5625 7.640625 -1.617188 8.078125 -1.734375 L 8.078125 -4.78125 Z M 6.53125 -4.78125 "/></g></g></g><g fill="#c40a6e" fill-opacity="1"><g transform="translate(193.339401, 19.931212)"><g><path d="M 1.3125 0 L 1.3125 -12.90625 L 3.296875 -12.90625 L 3.296875 0 Z M 1.3125 0 "/></g></g></g><g fill="#c40a6e" fill-opacity="1"><g transform="translate(201.853465, 19.931212)"><g><path d="M 7.953125 -6.3125 L 7.953125 -2.15625 C 7.960938 -1.882812 8.03125 -1.6875 8.15625 -1.5625 C 8.28125 -1.4375 8.476562 -1.351562 8.75 -1.3125 L 8.703125 0.203125 C 7.648438 0.203125 6.835938 -0.0195312 6.265625 -0.46875 C 5.296875 -0.0195312 4.320312 0.203125 3.34375 0.203125 C 1.53125 0.203125 0.625 -0.765625 0.625 -2.703125 C 0.625 -3.617188 0.867188 -4.285156 1.359375 -4.703125 C 1.847656 -5.117188 2.601562 -5.367188 3.625 -5.453125 L 5.984375 -5.65625 L 5.984375 -6.3125 C 5.984375 -6.789062 5.875 -7.128906 5.65625 -7.328125 C 5.445312 -7.523438 5.132812 -7.625 4.71875 -7.625 C 3.945312 -7.625 2.976562 -7.570312 1.8125 -7.46875 L 1.21875 -7.4375 L 1.15625 -8.84375 C 2.476562 -9.15625 3.691406 -9.3125 4.796875 -9.3125 C 5.910156 -9.3125 6.710938 -9.070312 7.203125 -8.59375 C 7.703125 -8.113281 7.953125 -7.351562 7.953125 -6.3125 Z M 3.859375 -4.046875 C 3.023438 -3.972656 2.609375 -3.515625 2.609375 -2.671875 C 2.609375 -1.835938 2.976562 -1.421875 3.71875 -1.421875 C 4.320312 -1.421875 4.96875 -1.519531 5.65625 -1.71875 L 5.984375 -1.828125 L 5.984375 -4.25 Z M 3.859375 -4.046875 "/></g></g></g><g fill="#c40a6e" fill-opacity="1"><g transform="translate(214.996375, 19.931212)"><g><path d="M 7.53125 -7.234375 C 6.09375 -7.429688 5.050781 -7.53125 4.40625 -7.53125 C 3.769531 -7.53125 3.328125 -7.453125 3.078125 -7.296875 C 2.828125 -7.148438 2.703125 -6.910156 2.703125 -6.578125 C 2.703125 -6.253906 2.835938 -6.023438 3.109375 -5.890625 C 3.378906 -5.753906 4.019531 -5.597656 5.03125 -5.421875 C 6.050781 -5.242188 6.773438 -4.96875 7.203125 -4.59375 C 7.628906 -4.21875 7.84375 -3.550781 7.84375 -2.59375 C 7.84375 -1.632812 7.535156 -0.925781 6.921875 -0.46875 C 6.304688 -0.0195312 5.410156 0.203125 4.234375 0.203125 C 3.492188 0.203125 2.554688 0.0976562 1.421875 -0.109375 L 0.859375 -0.203125 L 0.9375 -1.859375 C 2.394531 -1.660156 3.441406 -1.5625 4.078125 -1.5625 C 4.722656 -1.5625 5.179688 -1.640625 5.453125 -1.796875 C 5.734375 -1.960938 5.875 -2.226562 5.875 -2.59375 C 5.875 -2.957031 5.742188 -3.207031 5.484375 -3.34375 C 5.222656 -3.488281 4.59375 -3.640625 3.59375 -3.796875 C 2.601562 -3.960938 1.878906 -4.222656 1.421875 -4.578125 C 0.960938 -4.929688 0.734375 -5.570312 0.734375 -6.5 C 0.734375 -7.4375 1.050781 -8.132812 1.6875 -8.59375 C 2.320312 -9.0625 3.140625 -9.296875 4.140625 -9.296875 C 4.921875 -9.296875 5.875 -9.203125 7 -9.015625 L 7.5625 -8.890625 Z M 7.53125 -7.234375 "/></g></g></g><g fill="#c40a6e" fill-opacity="1"><g transform="translate(227.446769, 19.931212)"><g><path d="M 3.59375 -7.421875 L 3.59375 0 L 1.625 0 L 1.625 -7.421875 L 0.5625 -7.421875 L 0.5625 -9.125 L 1.625 -9.125 L 1.625 -9.703125 C 1.625 -11.003906 1.8125 -11.894531 2.1875 -12.375 C 2.5625 -12.863281 3.226562 -13.109375 4.1875 -13.109375 L 6.15625 -12.921875 L 6.140625 -11.3125 C 5.546875 -11.332031 5.050781 -11.34375 4.65625 -11.34375 C 4.257812 -11.34375 3.984375 -11.222656 3.828125 -10.984375 C 3.671875 -10.742188 3.59375 -10.3125 3.59375 -9.6875 L 3.59375 -9.125 L 6 -9.125 L 6 -7.421875 Z M 3.59375 -7.421875 "/></g></g></g><g fill="#c40a6e" fill-opacity="1"><g transform="translate(237.655649, 19.931212)"><g><path d="M 7.953125 -6.3125 L 7.953125 -2.15625 C 7.960938 -1.882812 8.03125 -1.6875 8.15625 -1.5625 C 8.28125 -1.4375 8.476562 -1.351562 8.75 -1.3125 L 8.703125 0.203125 C 7.648438 0.203125 6.835938 -0.0195312 6.265625 -0.46875 C 5.296875 -0.0195312 4.320312 0.203125 3.34375 0.203125 C 1.53125 0.203125 0.625 -0.765625 0.625 -2.703125 C 0.625 -3.617188 0.867188 -4.285156 1.359375 -4.703125 C 1.847656 -5.117188 2.601562 -5.367188 3.625 -5.453125 L 5.984375 -5.65625 L 5.984375 -6.3125 C 5.984375 -6.789062 5.875 -7.128906 5.65625 -7.328125 C 5.445312 -7.523438 5.132812 -7.625 4.71875 -7.625 C 3.945312 -7.625 2.976562 -7.570312 1.8125 -7.46875 L 1.21875 -7.4375 L 1.15625 -8.84375 C 2.476562 -9.15625 3.691406 -9.3125 4.796875 -9.3125 C 5.910156 -9.3125 6.710938 -9.070312 7.203125 -8.59375 C 7.703125 -8.113281 7.953125 -7.351562 7.953125 -6.3125 Z M 3.859375 -4.046875 C 3.023438 -3.972656 2.609375 -3.515625 2.609375 -2.671875 C 2.609375 -1.835938 2.976562 -1.421875 3.71875 -1.421875 C 4.320312 -1.421875 4.96875 -1.519531 5.65625 -1.71875 L 5.984375 -1.828125 L 5.984375 -4.25 Z M 3.859375 -4.046875 "/></g></g></g><g fill="#c40a6e" fill-opacity="1"><g transform="translate(250.79856, 19.931212)"><g><path d="M 7.53125 -7.234375 C 6.09375 -7.429688 5.050781 -7.53125 4.40625 -7.53125 C 3.769531 -7.53125 3.328125 -7.453125 3.078125 -7.296875 C 2.828125 -7.148438 2.703125 -6.910156 2.703125 -6.578125 C 2.703125 -6.253906 2.835938 -6.023438 3.109375 -5.890625 C 3.378906 -5.753906 4.019531 -5.597656 5.03125 -5.421875 C 6.050781 -5.242188 6.773438 -4.96875 7.203125 -4.59375 C 7.628906 -4.21875 7.84375 -3.550781 7.84375 -2.59375 C 7.84375 -1.632812 7.535156 -0.925781 6.921875 -0.46875 C 6.304688 -0.0195312 5.410156 0.203125 4.234375 0.203125 C 3.492188 0.203125 2.554688 0.0976562 1.421875 -0.109375 L 0.859375 -0.203125 L 0.9375 -1.859375 C 2.394531 -1.660156 3.441406 -1.5625 4.078125 -1.5625 C 4.722656 -1.5625 5.179688 -1.640625 5.453125 -1.796875 C 5.734375 -1.960938 5.875 -2.226562 5.875 -2.59375 C 5.875 -2.957031 5.742188 -3.207031 5.484375 -3.34375 C 5.222656 -3.488281 4.59375 -3.640625 3.59375 -3.796875 C 2.601562 -3.960938 1.878906 -4.222656 1.421875 -4.578125 C 0.960938 -4.929688 0.734375 -5.570312 0.734375 -6.5 C 0.734375 -7.4375 1.050781 -8.132812 1.6875 -8.59375 C 2.320312 -9.0625 3.140625 -9.296875 4.140625 -9.296875 C 4.921875 -9.296875 5.875 -9.203125 7 -9.015625 L 7.5625 -8.890625 Z M 7.53125 -7.234375 "/></g></g></g><g fill="#c40a6e" fill-opacity="1"><g transform="translate(263.248954, 19.931212)"><g><path d="M 7.6875 -1.640625 L 8.203125 -1.703125 L 8.234375 -0.21875 C 6.847656 0.0625 5.625 0.203125 4.5625 0.203125 C 3.207031 0.203125 2.234375 -0.164062 1.640625 -0.90625 C 1.054688 -1.65625 0.765625 -2.84375 0.765625 -4.46875 C 0.765625 -7.695312 2.082031 -9.3125 4.71875 -9.3125 C 7.269531 -9.3125 8.546875 -7.921875 8.546875 -5.140625 L 8.421875 -3.71875 L 2.765625 -3.71875 C 2.785156 -2.96875 2.953125 -2.414062 3.265625 -2.0625 C 3.578125 -1.707031 4.164062 -1.53125 5.03125 -1.53125 C 5.894531 -1.53125 6.78125 -1.566406 7.6875 -1.640625 Z M 6.59375 -5.25 C 6.59375 -6.144531 6.453125 -6.769531 6.171875 -7.125 C 5.890625 -7.488281 5.40625 -7.671875 4.71875 -7.671875 C 4.039062 -7.671875 3.546875 -7.484375 3.234375 -7.109375 C 2.921875 -6.734375 2.757812 -6.113281 2.75 -5.25 Z M 6.59375 -5.25 "/></g></g></g><g fill="#c40a6e" fill-opacity="1"><g transform="translate(276.410087, 19.931212)"><g><path d="M 1.203125 0 L 1.203125 -9.125 L 3.171875 -9.125 L 3.171875 -8.015625 C 4.203125 -8.691406 5.234375 -9.125 6.265625 -9.3125 L 6.265625 -7.328125 C 5.222656 -7.117188 4.332031 -6.851562 3.59375 -6.53125 L 3.1875 -6.359375 L 3.1875 0 Z M 1.203125 0 "/></g></g></g><g fill="#c40a6e" fill-opacity="1"><g transform="translate(286.892326, 19.931212)"><g><path d="M 6.109375 -7.421875 L 3.59375 -7.421875 L 3.59375 -3.40625 C 3.59375 -2.664062 3.644531 -2.171875 3.75 -1.921875 C 3.863281 -1.679688 4.144531 -1.5625 4.59375 -1.5625 L 6.09375 -1.625 L 6.1875 -0.03125 C 5.363281 0.125 4.742188 0.203125 4.328125 0.203125 C 3.285156 0.203125 2.570312 -0.03125 2.1875 -0.5 C 1.8125 -0.976562 1.625 -1.875 1.625 -3.1875 L 1.625 -7.421875 L 0.453125 -7.421875 L 0.453125 -9.125 L 1.625 -9.125 L 1.625 -11.765625 L 3.59375 -11.765625 L 3.59375 -9.125 L 6.109375 -9.125 Z M 6.109375 -7.421875 "/></g></g></g><g fill="#c40a6e" fill-opacity="1"><g transform="translate(297.319876, 19.931212)"><g><path d="M 7.6875 -1.640625 L 8.203125 -1.703125 L 8.234375 -0.21875 C 6.847656 0.0625 5.625 0.203125 4.5625 0.203125 C 3.207031 0.203125 2.234375 -0.164062 1.640625 -0.90625 C 1.054688 -1.65625 0.765625 -2.84375 0.765625 -4.46875 C 0.765625 -7.695312 2.082031 -9.3125 4.71875 -9.3125 C 7.269531 -9.3125 8.546875 -7.921875 8.546875 -5.140625 L 8.421875 -3.71875 L 2.765625 -3.71875 C 2.785156 -2.96875 2.953125 -2.414062 3.265625 -2.0625 C 3.578125 -1.707031 4.164062 -1.53125 5.03125 -1.53125 C 5.894531 -1.53125 6.78125 -1.566406 7.6875 -1.640625 Z M 6.59375 -5.25 C 6.59375 -6.144531 6.453125 -6.769531 6.171875 -7.125 C 5.890625 -7.488281 5.40625 -7.671875 4.71875 -7.671875 C 4.039062 -7.671875 3.546875 -7.484375 3.234375 -7.109375 C 2.921875 -6.734375 2.757812 -6.113281 2.75 -5.25 Z M 6.59375 -5.25 "/></g></g></g><g fill="#c40a6e" fill-opacity="1"><g transform="translate(310.48101, 19.931212)"><g><path d="M 4.609375 -9.3125 C 5.253906 -9.3125 6.015625 -9.226562 6.890625 -9.0625 L 7.34375 -8.96875 L 7.28125 -7.40625 C 6.3125 -7.5 5.597656 -7.546875 5.140625 -7.546875 C 4.210938 -7.546875 3.59375 -7.335938 3.28125 -6.921875 C 2.96875 -6.515625 2.8125 -5.738281 2.8125 -4.59375 C 2.8125 -3.445312 2.960938 -2.65625 3.265625 -2.21875 C 3.566406 -1.78125 4.195312 -1.5625 5.15625 -1.5625 L 7.296875 -1.71875 L 7.34375 -0.125 C 6.113281 0.09375 5.191406 0.203125 4.578125 0.203125 C 3.191406 0.203125 2.210938 -0.171875 1.640625 -0.921875 C 1.078125 -1.671875 0.796875 -2.894531 0.796875 -4.59375 C 0.796875 -6.289062 1.09375 -7.5 1.6875 -8.21875 C 2.289062 -8.945312 3.265625 -9.3125 4.609375 -9.3125 Z M 4.609375 -9.3125 "/></g></g></g><g fill="#c40a6e" fill-opacity="1"><g transform="translate(322.439375, 19.931212)"><g><path d="M 3.1875 0 L 1.203125 0 L 1.203125 -12.90625 L 3.1875 -12.90625 L 3.1875 -8.640625 C 4.09375 -9.085938 4.925781 -9.3125 5.6875 -9.3125 C 6.90625 -9.3125 7.734375 -8.96875 8.171875 -8.28125 C 8.617188 -7.59375 8.84375 -6.460938 8.84375 -4.890625 L 8.84375 0 L 6.859375 0 L 6.859375 -4.828125 C 6.859375 -5.816406 6.753906 -6.515625 6.546875 -6.921875 C 6.335938 -7.335938 5.898438 -7.546875 5.234375 -7.546875 C 4.648438 -7.546875 4.066406 -7.445312 3.484375 -7.25 L 3.1875 -7.140625 Z M 3.1875 0 "/></g></g></g><g fill="#c40a6e" fill-opacity="1"><g transform="translate(336.293005, 19.931212)"><g><path d="M 3.1875 0 L 1.203125 0 L 1.203125 -9.125 L 3.171875 -9.125 L 3.171875 -8.546875 C 4.054688 -9.054688 4.894531 -9.3125 5.6875 -9.3125 C 6.90625 -9.3125 7.734375 -8.96875 8.171875 -8.28125 C 8.617188 -7.59375 8.84375 -6.460938 8.84375 -4.890625 L 8.84375 0 L 6.875 0 L 6.875 -4.828125 C 6.875 -5.816406 6.765625 -6.515625 6.546875 -6.921875 C 6.335938 -7.335938 5.90625 -7.546875 5.25 -7.546875 C 4.632812 -7.546875 4.039062 -7.425781 3.46875 -7.1875 L 3.1875 -7.078125 Z M 3.1875 0 "/></g></g></g><g fill="#c40a6e" fill-opacity="1"><g transform="translate(350.146634, 19.931212)"><g><path d="M 1.203125 0 L 1.203125 -9.125 L 3.1875 -9.125 L 3.1875 0 Z M 1.203125 -10.671875 L 1.203125 -12.765625 L 3.1875 -12.765625 L 3.1875 -10.671875 Z M 1.203125 -10.671875 "/></g></g></g><g fill="#c40a6e" fill-opacity="1"><g transform="translate(358.442007, 19.931212)"><g><path d="M 3.1875 0 L 1.203125 0 L 1.203125 -12.90625 L 3.1875 -12.90625 L 3.1875 -5.453125 L 4.328125 -5.5625 L 6.46875 -9.125 L 8.703125 -9.125 L 6.078125 -4.84375 L 8.84375 0 L 6.59375 0 L 4.375 -3.84375 L 3.1875 -3.71875 Z M 3.1875 0 "/></g></g></g></g></g></g><g clip-path="url(#9b7c74253b)"><g transform="matrix(1, 0, 0, 1, 0, 9)"><g clip-path="url(#b75f1e42aa)"><g clip-path="url(#aeff7b21c3)"><g fill="#1d04b4" fill-opacity="1"><g transform="translate(0.335683, 32.828469)"><g><path d="M 32.46875 -5.796875 C 32.46875 -4.203125 31.894531 -2.832031 30.75 -1.6875 C 29.625 -0.5625 28.269531 0 26.6875 0 L 0 0 L 0 -2.890625 L 26.6875 -2.890625 C 27.46875 -2.890625 28.144531 -3.175781 28.71875 -3.75 C 29.289062 -4.320312 29.578125 -5.003906 29.578125 -5.796875 C 29.578125 -6.597656 29.289062 -7.28125 28.71875 -7.84375 C 28.144531 -8.40625 27.46875 -8.6875 26.6875 -8.6875 L 5.796875 -8.6875 C 4.171875 -8.6875 2.800781 -9.25 1.6875 -10.375 C 0.5625 -11.488281 0 -12.867188 0 -14.515625 C 0 -16.109375 0.5625 -17.460938 1.6875 -18.578125 C 2.832031 -19.734375 4.203125 -20.3125 5.796875 -20.3125 L 30.75 -20.3125 L 30.75 -17.375 L 5.796875 -17.375 C 5.003906 -17.375 4.320312 -17.09375 3.75 -16.53125 C 3.175781 -15.96875 2.890625 -15.296875 2.890625 -14.515625 C 2.890625 -13.703125 3.175781 -13.015625 3.75 -12.453125 C 4.320312 -11.898438 5.003906 -11.625 5.796875 -11.625 L 26.6875 -11.625 C 28.25 -11.625 29.601562 -11.050781 30.75 -9.90625 C 31.894531 -8.75 32.46875 -7.378906 32.46875 -5.796875 Z M 32.46875 -5.796875 "/></g></g></g></g><g fill="#1d04b4" fill-opacity="1"><g transform="translate(36.705425, 32.828469)"><g><path d="M 31.296875 0 L 31.296875 -12.75 C 31.296875 -14 30.84375 -15.082031 29.9375 -16 C 29.019531 -16.914062 27.9375 -17.375 26.6875 -17.375 L 23.203125 -17.375 C 21.921875 -17.375 20.828125 -16.914062 19.921875 -16 C 19.003906 -15.082031 18.546875 -14 18.546875 -12.75 L 18.546875 0 L 15.65625 0 L 15.65625 -12.75 C 15.65625 -14 15.195312 -15.082031 14.28125 -16 C 13.363281 -16.914062 12.28125 -17.375 11.03125 -17.375 L 7.546875 -17.375 C 6.273438 -17.375 5.179688 -16.914062 4.265625 -16 C 3.347656 -15.082031 2.890625 -14 2.890625 -12.75 L 2.890625 0 L 0 0 L 0 -12.75 C 0 -14.84375 0.726562 -16.617188 2.1875 -18.078125 C 3.675781 -19.566406 5.460938 -20.3125 7.546875 -20.3125 L 11.03125 -20.3125 C 13.59375 -20.3125 15.613281 -19.28125 17.09375 -17.21875 C 18.601562 -19.28125 20.640625 -20.3125 23.203125 -20.3125 L 26.6875 -20.3125 C 28.75 -20.3125 30.507812 -19.566406 31.96875 -18.078125 C 33.445312 -16.617188 34.1875 -14.84375 34.1875 -12.75 L 34.1875 0 Z M 31.296875 0 "/></g></g></g><g fill="#1d04b4" fill-opacity="1"><g transform="translate(74.795892, 32.828469)"><g><path d="M 29.578125 0 L 29.546875 -12.75 C 29.546875 -14 29.085938 -15.082031 28.171875 -16 C 27.253906 -16.914062 26.171875 -17.375 24.921875 -17.375 L 7.546875 -17.375 C 6.273438 -17.375 5.179688 -16.914062 4.265625 -16 C 3.378906 -15.113281 2.9375 -14.03125 2.9375 -12.75 L 2.890625 -7.546875 C 2.890625 -6.273438 3.347656 -5.179688 4.265625 -4.265625 C 5.179688 -3.347656 6.273438 -2.890625 7.546875 -2.890625 L 25.515625 -2.890625 L 25.515625 0 L 7.546875 0 C 5.484375 0 3.695312 -0.726562 2.1875 -2.1875 C 0.726562 -3.695312 0 -5.484375 0 -7.546875 L 0 -12.75 C 0 -14.84375 0.726562 -16.617188 2.1875 -18.078125 C 3.675781 -19.566406 5.460938 -20.3125 7.546875 -20.3125 L 24.921875 -20.3125 C 27.003906 -20.3125 28.78125 -19.566406 30.25 -18.078125 C 31.726562 -16.617188 32.46875 -14.84375 32.46875 -12.75 L 32.46875 0 Z M 29.578125 0 "/></g></g></g></g></g></g><g transform="matrix(1, 0, 0, 1, 185, 9)"><g clip-path="url(#b66da90bc6)"><g clip-path="url(#fe778d4a6b)"><g fill="#c40a6e" fill-opacity="1"><g transform="translate(0.810673, 32.828469)"><g><path d="M 32.46875 -14.515625 C 32.46875 -12.898438 31.894531 -11.519531 30.75 -10.375 C 29.625 -9.25 28.269531 -8.6875 26.6875 -8.6875 L 5.203125 -8.6875 L 5.203125 -11.625 L 26.6875 -11.625 C 27.46875 -11.625 28.144531 -11.898438 28.71875 -12.453125 C 29.289062 -13.015625 29.578125 -13.703125 29.578125 -14.515625 C 29.578125 -15.296875 29.289062 -15.96875 28.71875 -16.53125 C 28.144531 -17.09375 27.46875 -17.375 26.6875 -17.375 L 7.546875 -17.375 C 6.273438 -17.375 5.179688 -16.914062 4.265625 -16 C 3.378906 -15.113281 2.9375 -14.03125 2.9375 -12.75 L 2.890625 -7.546875 C 2.890625 -6.273438 3.347656 -5.179688 4.265625 -4.265625 C 5.179688 -3.347656 6.273438 -2.890625 7.546875 -2.890625 L 30.75 -2.890625 L 30.75 0 L 7.546875 0 C 5.484375 0 3.695312 -0.726562 2.1875 -2.1875 C 0.726562 -3.695312 0 -5.484375 0 -7.546875 L 0 -12.75 C 0 -14.84375 0.726562 -16.617188 2.1875 -18.078125 C 3.675781 -19.566406 5.460938 -20.3125 7.546875 -20.3125 L 26.6875 -20.3125 C 28.25 -20.3125 29.601562 -19.734375 30.75 -18.578125 C 31.894531 -17.429688 32.46875 -16.078125 32.46875 -14.515625 Z M 32.46875 -14.515625 "/></g></g></g></g><g fill="#c40a6e" fill-opacity="1"><g transform="translate(37.180416, 32.828469)"><g><path d="M 7.546875 0 C 5.484375 0 3.695312 -0.726562 2.1875 -2.1875 C 0.726562 -3.695312 0 -5.484375 0 -7.546875 L 0 -12.75 C 0 -14.84375 0.726562 -16.617188 2.1875 -18.078125 C 3.675781 -19.566406 5.460938 -20.3125 7.546875 -20.3125 L 28.984375 -20.3125 L 28.984375 -17.375 L 7.546875 -17.375 C 6.273438 -17.375 5.179688 -16.914062 4.265625 -16 C 3.378906 -15.113281 2.9375 -14.03125 2.9375 -12.75 L 2.890625 -7.546875 C 2.890625 -6.273438 3.347656 -5.179688 4.265625 -4.265625 C 5.179688 -3.347656 6.273438 -2.890625 7.546875 -2.890625 L 28.984375 -2.890625 L 28.984375 0 Z M 7.546875 0 "/></g></g></g><g fill="#c40a6e" fill-opacity="1"><g transform="translate(70.069624, 32.828469)"><g><path d="M 29.578125 0 L 29.578125 -12.75 C 29.578125 -14 29.117188 -15.082031 28.203125 -16 C 27.296875 -16.914062 26.203125 -17.375 24.921875 -17.375 L 7.546875 -17.375 C 6.273438 -17.375 5.179688 -16.914062 4.265625 -16 C 3.347656 -15.082031 2.890625 -14 2.890625 -12.75 L 2.890625 0 L 0 0 L 0 -12.75 C 0 -14.707031 0.664062 -16.414062 2 -17.875 C 3.40625 -19.363281 5.0625 -20.160156 6.96875 -20.265625 L 6.96875 -25.515625 L 9.859375 -25.515625 L 9.859375 -20.3125 L 24.921875 -20.3125 C 27.003906 -20.3125 28.78125 -19.566406 30.25 -18.078125 C 31.726562 -16.617188 32.46875 -14.84375 32.46875 -12.75 L 32.46875 0 Z M 29.578125 0 "/></g></g></g><g fill="#c40a6e" fill-opacity="1"><g transform="translate(106.439367, 32.828469)"><g><path d="M 29.578125 0 L 29.578125 -12.75 C 29.578125 -14 29.117188 -15.082031 28.203125 -16 C 27.296875 -16.914062 26.203125 -17.375 24.921875 -17.375 L 7.546875 -17.375 C 6.273438 -17.375 5.179688 -16.914062 4.265625 -16 C 3.347656 -15.082031 2.890625 -14 2.890625 -12.75 L 2.890625 0 L 0 0 L 0 -12.75 C 0 -14.84375 0.726562 -16.617188 2.1875 -18.078125 C 3.675781 -19.566406 5.460938 -20.3125 7.546875 -20.3125 L 24.921875 -20.3125 C 27.003906 -20.3125 28.78125 -19.566406 30.25 -18.078125 C 31.726562 -16.617188 32.46875 -14.84375 32.46875 -12.75 L 32.46875 0 Z M 29.578125 0 "/></g></g></g><g fill="#c40a6e" fill-opacity="1"><g transform="translate(142.809109, 32.828469)"><g><path d="M 0 -22.609375 L 0 -25.515625 L 2.890625 -25.515625 L 2.890625 -22.609375 Z M 0 0 L 0 -20.3125 L 2.890625 -20.3125 L 2.890625 0 Z M 0 0 "/></g></g></g><g fill="#c40a6e" fill-opacity="1"><g transform="translate(149.613774, 32.828469)"><g><path d="M 29.578125 0 L 29.578125 -4.0625 C 29.578125 -5.320312 29.117188 -6.40625 28.203125 -7.3125 C 27.296875 -8.226562 26.203125 -8.6875 24.921875 -8.6875 L 7.546875 -8.6875 C 5.617188 -8.6875 4.066406 -9.457031 2.890625 -11 L 2.890625 0 L 0 0 L 0 -25.515625 L 2.890625 -25.515625 L 2.890625 -18 C 4.066406 -19.539062 5.617188 -20.3125 7.546875 -20.3125 L 28.984375 -20.3125 L 28.984375 -17.375 L 7.546875 -17.375 C 6.742188 -17.375 6.0625 -17.09375 5.5 -16.53125 C 4.9375 -15.96875 4.65625 -15.296875 4.65625 -14.515625 C 4.65625 -13.703125 4.9375 -13.015625 5.5 -12.453125 C 6.0625 -11.898438 6.742188 -11.625 7.546875 -11.625 L 24.921875 -11.625 C 27.003906 -11.625 28.78125 -10.878906 30.25 -9.390625 C 31.726562 -7.929688 32.46875 -6.15625 32.46875 -4.0625 L 32.46875 0 Z M 29.578125 0 "/></g></g></g></g></g><g clip-path="url(#55c15622a7)"><g transform="matrix(1, 0, 0, 1, 153, 0.000000000000056843)"><g clip-path="url(#81e05ea7e6)"><g clip-path="url(#ad1eb6de1a)"><g fill="#c40a6e" fill-opacity="1"><g transform="translate(0.599815, 41.658904)"><g><path d="M 28.84375 -29.25 C 27.1875 -29.25 25.769531 -28.65625 24.59375 -27.46875 C 23.445312 -26.320312 22.875 -24.90625 22.875 -23.21875 L 22.875 0 L 19.125 0 L 19.125 -23.21875 C 19.125 -24.875 18.535156 -26.289062 17.359375 -27.46875 C 16.171875 -28.65625 14.769531 -29.25 13.15625 -29.25 L 0 -29.25 L 0 -32.984375 L 13.15625 -32.984375 C 16.425781 -32.984375 19.039062 -31.648438 21 -28.984375 C 22.957031 -31.648438 25.570312 -32.984375 28.84375 -32.984375 L 42 -32.984375 L 42 -29.25 Z M 28.84375 -29.25 "/></g></g></g></g></g></g></g><g transform="matrix(1, 0, 0, 1, 112, 5)"><g clip-path="url(#2770531544)"><g clip-path="url(#6554c2a7b6)"><g fill="#1d04b4" fill-opacity="1"><g transform="translate(0.482825, 42.3514)"><g><path d="M 42 -21 C 42 -18.300781 41.035156 -15.988281 39.109375 -14.0625 C 37.222656 -12.175781 34.929688 -11.234375 32.234375 -11.234375 L 14.265625 -11.234375 C 13.222656 -11.234375 12.335938 -10.867188 11.609375 -10.140625 C 10.890625 -9.421875 10.53125 -8.535156 10.53125 -7.484375 C 10.53125 -6.472656 10.890625 -5.597656 11.609375 -4.859375 C 12.335938 -4.117188 13.222656 -3.75 14.265625 -3.75 L 39.765625 -3.75 L 39.765625 0 L 14.265625 0 C 12.140625 0 10.351562 -0.722656 8.90625 -2.171875 C 7.457031 -3.617188 6.734375 -5.390625 6.734375 -7.484375 C 6.734375 -9.578125 7.457031 -11.347656 8.90625 -12.796875 C 10.382812 -14.285156 12.171875 -15.03125 14.265625 -15.03125 L 32.234375 -15.03125 C 33.878906 -15.03125 35.273438 -15.601562 36.421875 -16.75 C 37.609375 -17.925781 38.203125 -19.34375 38.203125 -21 L 38.203125 -23.21875 C 38.203125 -24.875 37.609375 -26.289062 36.421875 -27.46875 C 35.242188 -28.65625 33.847656 -29.25 32.234375 -29.25 L 9.765625 -29.25 C 8.109375 -29.25 6.691406 -28.65625 5.515625 -27.46875 C 4.367188 -26.320312 3.796875 -24.90625 3.796875 -23.21875 L 3.75 0 L 0 0 L 0 -23.21875 C 0 -25.914062 0.941406 -28.210938 2.828125 -30.109375 C 4.753906 -32.023438 7.066406 -32.984375 9.765625 -32.984375 L 32.234375 -32.984375 C 34.929688 -32.984375 37.222656 -32.023438 39.109375 -30.109375 C 41.035156 -28.210938 42 -25.914062 42 -23.21875 Z M 42 -21 "/></g></g></g></g></g></g><g transform="matrix(1, 0, 0, 1, 143, 5)"><g clip-path="url(#961422e8ba)"><g clip-path="url(#1b1d6a62b4)"><g fill="#1d04b4" fill-opacity="1"><g transform="translate(0.414582, 42.3514)"><g><path d="M 28.84375 -29.25 C 27.1875 -29.25 25.769531 -28.65625 24.59375 -27.46875 C 23.445312 -26.320312 22.875 -24.90625 22.875 -23.21875 L 22.875 0 L 19.125 0 L 19.125 -23.21875 C 19.125 -24.875 18.535156 -26.289062 17.359375 -27.46875 C 16.171875 -28.65625 14.769531 -29.25 13.15625 -29.25 L 0 -29.25 L 0 -32.984375 L 13.15625 -32.984375 C 16.425781 -32.984375 19.039062 -31.648438 21 -28.984375 C 22.957031 -31.648438 25.570312 -32.984375 28.84375 -32.984375 L 42 -32.984375 L 42 -29.25 Z M 28.84375 -29.25 "/></g></g></g></g></g></g></g></g></svg>