<svg xmlns="http://www.w3.org/2000/svg" xmlns:xlink="http://www.w3.org/1999/xlink" width="500" zoomAndPan="magnify" viewBox="0 0 375 374.999991" height="500" preserveAspectRatio="xMidYMid meet" version="1.0"><defs><g/><clipPath id="8419e5942c"><rect x="0" width="375" y="0" height="30"/></clipPath><clipPath id="e1566755ce"><rect x="0" width="114" y="0" height="43"/></clipPath><clipPath id="171ba2dcb7"><path d="M 0.121094 12 L 34 12 L 34 34 L 0.121094 34 Z M 0.121094 12 " clip-rule="nonzero"/></clipPath><clipPath id="7d45856755"><rect x="0" width="186" y="0" height="43"/></clipPath><clipPath id="0f916eefd0"><path d="M 0.238281 8 L 44 8 L 44 43 L 0.238281 43 Z M 0.238281 8 " clip-rule="nonzero"/></clipPath><clipPath id="f2a0b3a03d"><rect x="0" width="50" y="0" height="54"/></clipPath><clipPath id="64bf3ffdfc"><path d="M 0.480469 9 L 43.679688 9 L 43.679688 44 L 0.480469 44 Z M 0.480469 9 " clip-rule="nonzero"/></clipPath><clipPath id="f566cef44e"><rect x="0" width="44" y="0" height="55"/></clipPath><clipPath id="0b193926bd"><rect x="0" width="45" y="0" height="55"/></clipPath></defs><g transform="matrix(1, 0, 0, 1, 0, 199)"><g clip-path="url(#8419e5942c)"><g fill="#c40a6e" fill-opacity="1"><g transform="translate(0.0000045, 21.05268)"><g><path d="M 5.875 0 L 1.46875 0 L 1.46875 -12.734375 L 5.875 -12.734375 C 7.832031 -12.734375 9.171875 -12.238281 9.890625 -11.25 C 10.609375 -10.257812 10.96875 -8.703125 10.96875 -6.578125 C 10.96875 -5.503906 10.894531 -4.59375 10.75 -3.84375 C 10.613281 -3.09375 10.363281 -2.410156 10 -1.796875 C 9.289062 -0.597656 7.914062 0 5.875 0 Z M 8.828125 -6.578125 C 8.828125 -8.117188 8.632812 -9.226562 8.25 -9.90625 C 7.863281 -10.59375 7.070312 -10.9375 5.875 -10.9375 L 3.53125 -10.9375 L 3.53125 -1.828125 L 5.875 -1.828125 C 7.101562 -1.828125 7.921875 -2.273438 8.328125 -3.171875 C 8.523438 -3.640625 8.65625 -4.128906 8.71875 -4.640625 C 8.789062 -5.160156 8.828125 -5.804688 8.828125 -6.578125 Z M 8.828125 -6.578125 "/></g></g></g><g fill="#c40a6e" fill-opacity="1"><g transform="translate(15.888234, 21.05268)"><g><path d="M 8.109375 -6.4375 L 8.109375 -2.1875 C 8.117188 -1.914062 8.1875 -1.710938 8.3125 -1.578125 C 8.445312 -1.453125 8.648438 -1.375 8.921875 -1.34375 L 8.875 0.203125 C 7.800781 0.203125 6.972656 -0.0234375 6.390625 -0.484375 C 5.398438 -0.0234375 4.40625 0.203125 3.40625 0.203125 C 1.550781 0.203125 0.625 -0.78125 0.625 -2.75 C 0.625 -3.695312 0.875 -4.378906 1.375 -4.796875 C 1.882812 -5.210938 2.660156 -5.46875 3.703125 -5.5625 L 6.09375 -5.765625 L 6.09375 -6.4375 C 6.09375 -6.925781 5.984375 -7.269531 5.765625 -7.46875 C 5.554688 -7.664062 5.238281 -7.765625 4.8125 -7.765625 C 4.019531 -7.765625 3.03125 -7.71875 1.84375 -7.625 L 1.25 -7.59375 L 1.171875 -9.015625 C 2.523438 -9.335938 3.765625 -9.5 4.890625 -9.5 C 6.023438 -9.5 6.84375 -9.253906 7.34375 -8.765625 C 7.851562 -8.273438 8.109375 -7.5 8.109375 -6.4375 Z M 3.9375 -4.125 C 3.082031 -4.050781 2.65625 -3.585938 2.65625 -2.734375 C 2.65625 -1.878906 3.035156 -1.453125 3.796875 -1.453125 C 4.410156 -1.453125 5.066406 -1.550781 5.765625 -1.75 L 6.09375 -1.859375 L 6.09375 -4.328125 Z M 3.9375 -4.125 "/></g></g></g><g fill="#c40a6e" fill-opacity="1"><g transform="translate(29.286953, 21.05268)"><g><path d="M 6.234375 -7.5625 L 3.65625 -7.5625 L 3.65625 -3.484375 C 3.65625 -2.722656 3.710938 -2.21875 3.828125 -1.96875 C 3.941406 -1.71875 4.226562 -1.59375 4.6875 -1.59375 L 6.203125 -1.65625 L 6.296875 -0.03125 C 5.472656 0.125 4.84375 0.203125 4.40625 0.203125 C 3.351562 0.203125 2.628906 -0.0351562 2.234375 -0.515625 C 1.847656 -1.003906 1.65625 -1.914062 1.65625 -3.25 L 1.65625 -7.5625 L 0.46875 -7.5625 L 0.46875 -9.296875 L 1.65625 -9.296875 L 1.65625 -12 L 3.65625 -12 L 3.65625 -9.296875 L 6.234375 -9.296875 Z M 6.234375 -7.5625 "/></g></g></g><g fill="#c40a6e" fill-opacity="1"><g transform="translate(39.917462, 21.05268)"><g><path d="M 7.84375 -1.671875 L 8.375 -1.734375 L 8.40625 -0.21875 C 6.988281 0.0625 5.738281 0.203125 4.65625 0.203125 C 3.269531 0.203125 2.273438 -0.171875 1.671875 -0.921875 C 1.078125 -1.679688 0.78125 -2.894531 0.78125 -4.5625 C 0.78125 -7.851562 2.125 -9.5 4.8125 -9.5 C 7.414062 -9.5 8.71875 -8.082031 8.71875 -5.25 L 8.59375 -3.796875 L 2.828125 -3.796875 C 2.835938 -3.023438 3.003906 -2.457031 3.328125 -2.09375 C 3.648438 -1.738281 4.25 -1.5625 5.125 -1.5625 C 6.007812 -1.5625 6.914062 -1.597656 7.84375 -1.671875 Z M 6.734375 -5.359375 C 6.734375 -6.273438 6.585938 -6.914062 6.296875 -7.28125 C 6.003906 -7.644531 5.507812 -7.828125 4.8125 -7.828125 C 4.125 -7.828125 3.617188 -7.632812 3.296875 -7.25 C 2.984375 -6.863281 2.820312 -6.234375 2.8125 -5.359375 Z M 6.734375 -5.359375 "/></g></g></g><g fill="#c40a6e" fill-opacity="1"><g transform="translate(53.334758, 21.05268)"><g><path d="M 3.25 0 L 1.234375 0 L 1.234375 -9.296875 L 3.234375 -9.296875 L 3.234375 -8.71875 C 4.140625 -9.238281 4.992188 -9.5 5.796875 -9.5 C 7.035156 -9.5 7.878906 -9.148438 8.328125 -8.453125 C 8.785156 -7.753906 9.015625 -6.597656 9.015625 -4.984375 L 9.015625 0 L 7.015625 0 L 7.015625 -4.921875 C 7.015625 -5.929688 6.90625 -6.644531 6.6875 -7.0625 C 6.46875 -7.488281 6.023438 -7.703125 5.359375 -7.703125 C 4.722656 -7.703125 4.113281 -7.578125 3.53125 -7.328125 L 3.25 -7.21875 Z M 3.25 0 "/></g></g></g><g fill="#c40a6e" fill-opacity="1"><g transform="translate(67.458029, 21.05268)"><g><path d="M 6.234375 -7.5625 L 3.65625 -7.5625 L 3.65625 -3.484375 C 3.65625 -2.722656 3.710938 -2.21875 3.828125 -1.96875 C 3.941406 -1.71875 4.226562 -1.59375 4.6875 -1.59375 L 6.203125 -1.65625 L 6.296875 -0.03125 C 5.472656 0.125 4.84375 0.203125 4.40625 0.203125 C 3.351562 0.203125 2.628906 -0.0351562 2.234375 -0.515625 C 1.847656 -1.003906 1.65625 -1.914062 1.65625 -3.25 L 1.65625 -7.5625 L 0.46875 -7.5625 L 0.46875 -9.296875 L 1.65625 -9.296875 L 1.65625 -12 L 3.65625 -12 L 3.65625 -9.296875 L 6.234375 -9.296875 Z M 6.234375 -7.5625 "/></g></g></g><g fill="#c40a6e" fill-opacity="1"><g transform="translate(78.088538, 21.05268)"><g><path d="M 7.84375 -1.671875 L 8.375 -1.734375 L 8.40625 -0.21875 C 6.988281 0.0625 5.738281 0.203125 4.65625 0.203125 C 3.269531 0.203125 2.273438 -0.171875 1.671875 -0.921875 C 1.078125 -1.679688 0.78125 -2.894531 0.78125 -4.5625 C 0.78125 -7.851562 2.125 -9.5 4.8125 -9.5 C 7.414062 -9.5 8.71875 -8.082031 8.71875 -5.25 L 8.59375 -3.796875 L 2.828125 -3.796875 C 2.835938 -3.023438 3.003906 -2.457031 3.328125 -2.09375 C 3.648438 -1.738281 4.25 -1.5625 5.125 -1.5625 C 6.007812 -1.5625 6.914062 -1.597656 7.84375 -1.671875 Z M 6.734375 -5.359375 C 6.734375 -6.273438 6.585938 -6.914062 6.296875 -7.28125 C 6.003906 -7.644531 5.507812 -7.828125 4.8125 -7.828125 C 4.125 -7.828125 3.617188 -7.632812 3.296875 -7.25 C 2.984375 -6.863281 2.820312 -6.234375 2.8125 -5.359375 Z M 6.734375 -5.359375 "/></g></g></g><g fill="#c40a6e" fill-opacity="1"><g transform="translate(91.505834, 21.05268)"><g><path d="M 4.703125 -9.5 C 5.359375 -9.5 6.132812 -9.410156 7.03125 -9.234375 L 7.5 -9.140625 L 7.421875 -7.546875 C 6.441406 -7.648438 5.71875 -7.703125 5.25 -7.703125 C 4.300781 -7.703125 3.664062 -7.488281 3.34375 -7.0625 C 3.019531 -6.644531 2.859375 -5.851562 2.859375 -4.6875 C 2.859375 -3.519531 3.015625 -2.710938 3.328125 -2.265625 C 3.640625 -1.816406 4.285156 -1.59375 5.265625 -1.59375 L 7.4375 -1.75 L 7.5 -0.125 C 6.238281 0.09375 5.296875 0.203125 4.671875 0.203125 C 3.253906 0.203125 2.253906 -0.175781 1.671875 -0.9375 C 1.097656 -1.695312 0.8125 -2.941406 0.8125 -4.671875 C 0.8125 -6.410156 1.113281 -7.648438 1.71875 -8.390625 C 2.332031 -9.128906 3.328125 -9.5 4.703125 -9.5 Z M 4.703125 -9.5 "/></g></g></g><g fill="#c40a6e" fill-opacity="1"><g transform="translate(103.696952, 21.05268)"><g><path d="M 3.25 0 L 1.234375 0 L 1.234375 -13.171875 L 3.25 -13.171875 L 3.25 -8.8125 C 4.164062 -9.269531 5.015625 -9.5 5.796875 -9.5 C 7.035156 -9.5 7.878906 -9.148438 8.328125 -8.453125 C 8.785156 -7.753906 9.015625 -6.597656 9.015625 -4.984375 L 9.015625 0 L 6.984375 0 L 6.984375 -4.921875 C 6.984375 -5.929688 6.878906 -6.644531 6.671875 -7.0625 C 6.460938 -7.488281 6.019531 -7.703125 5.34375 -7.703125 C 4.738281 -7.703125 4.140625 -7.601562 3.546875 -7.40625 L 3.25 -7.28125 Z M 3.25 0 "/></g></g></g><g fill="#c40a6e" fill-opacity="1"><g transform="translate(117.820223, 21.05268)"><g><path d="M 3.25 0 L 1.234375 0 L 1.234375 -9.296875 L 3.234375 -9.296875 L 3.234375 -8.71875 C 4.140625 -9.238281 4.992188 -9.5 5.796875 -9.5 C 7.035156 -9.5 7.878906 -9.148438 8.328125 -8.453125 C 8.785156 -7.753906 9.015625 -6.597656 9.015625 -4.984375 L 9.015625 0 L 7.015625 0 L 7.015625 -4.921875 C 7.015625 -5.929688 6.90625 -6.644531 6.6875 -7.0625 C 6.46875 -7.488281 6.023438 -7.703125 5.359375 -7.703125 C 4.722656 -7.703125 4.113281 -7.578125 3.53125 -7.328125 L 3.25 -7.21875 Z M 3.25 0 "/></g></g></g><g fill="#c40a6e" fill-opacity="1"><g transform="translate(131.943494, 21.05268)"><g><path d="M 1.234375 0 L 1.234375 -9.296875 L 3.25 -9.296875 L 3.25 0 Z M 1.234375 -10.875 L 1.234375 -13.015625 L 3.25 -13.015625 L 3.25 -10.875 Z M 1.234375 -10.875 "/></g></g></g><g fill="#c40a6e" fill-opacity="1"><g transform="translate(140.400325, 21.05268)"><g><path d="M 3.25 0 L 1.234375 0 L 1.234375 -13.171875 L 3.25 -13.171875 L 3.25 -5.5625 L 4.40625 -5.671875 L 6.59375 -9.296875 L 8.875 -9.296875 L 6.1875 -4.953125 L 9.015625 0 L 6.734375 0 L 4.46875 -3.921875 L 3.25 -3.796875 Z M 3.25 0 "/></g></g></g><g fill="#c40a6e" fill-opacity="1"><g transform="translate(153.650406, 21.05268)"><g/></g></g><g fill="#1d04b4" fill-opacity="1"><g transform="translate(161.717659, 21.05268)"><g><path d="M 1.140625 -4.09375 L 1.140625 -5.9375 L 6.6875 -5.9375 L 6.6875 -4.09375 Z M 1.140625 -4.09375 "/></g></g></g><g fill="#c40a6e" fill-opacity="1"><g transform="translate(173.54036, 21.05268)"><g/></g></g><g fill="#c40a6e" fill-opacity="1"><g transform="translate(181.607049, 21.05268)"><g><path d="M 6.65625 -4.875 L 6.65625 -6.6875 L 10.28125 -6.6875 L 10.28125 -0.21875 C 9.945312 -0.132812 9.269531 -0.046875 8.25 0.046875 C 7.226562 0.148438 6.488281 0.203125 6.03125 0.203125 C 4.09375 0.203125 2.757812 -0.328125 2.03125 -1.390625 C 1.300781 -2.460938 0.9375 -4.132812 0.9375 -6.40625 C 0.9375 -8.675781 1.304688 -10.332031 2.046875 -11.375 C 2.796875 -12.414062 4.097656 -12.9375 5.953125 -12.9375 C 7.046875 -12.9375 8.269531 -12.8125 9.625 -12.5625 L 10.28125 -12.4375 L 10.203125 -10.796875 C 8.703125 -10.992188 7.359375 -11.09375 6.171875 -11.09375 C 4.984375 -11.09375 4.164062 -10.757812 3.71875 -10.09375 C 3.28125 -9.425781 3.0625 -8.1875 3.0625 -6.375 C 3.0625 -4.5625 3.269531 -3.3125 3.6875 -2.625 C 4.101562 -1.9375 4.941406 -1.59375 6.203125 -1.59375 C 7.109375 -1.59375 7.785156 -1.648438 8.234375 -1.765625 L 8.234375 -4.875 Z M 6.65625 -4.875 "/></g></g></g><g fill="#c40a6e" fill-opacity="1"><g transform="translate(196.975075, 21.05268)"><g><path d="M 1.34375 0 L 1.34375 -13.171875 L 3.359375 -13.171875 L 3.359375 0 Z M 1.34375 0 "/></g></g></g><g fill="#c40a6e" fill-opacity="1"><g transform="translate(205.654854, 21.05268)"><g><path d="M 8.109375 -6.4375 L 8.109375 -2.1875 C 8.117188 -1.914062 8.1875 -1.710938 8.3125 -1.578125 C 8.445312 -1.453125 8.648438 -1.375 8.921875 -1.34375 L 8.875 0.203125 C 7.800781 0.203125 6.972656 -0.0234375 6.390625 -0.484375 C 5.398438 -0.0234375 4.40625 0.203125 3.40625 0.203125 C 1.550781 0.203125 0.625 -0.78125 0.625 -2.75 C 0.625 -3.695312 0.875 -4.378906 1.375 -4.796875 C 1.882812 -5.210938 2.660156 -5.46875 3.703125 -5.5625 L 6.09375 -5.765625 L 6.09375 -6.4375 C 6.09375 -6.925781 5.984375 -7.269531 5.765625 -7.46875 C 5.554688 -7.664062 5.238281 -7.765625 4.8125 -7.765625 C 4.019531 -7.765625 3.03125 -7.71875 1.84375 -7.625 L 1.25 -7.59375 L 1.171875 -9.015625 C 2.523438 -9.335938 3.765625 -9.5 4.890625 -9.5 C 6.023438 -9.5 6.84375 -9.253906 7.34375 -8.765625 C 7.851562 -8.273438 8.109375 -7.5 8.109375 -6.4375 Z M 3.9375 -4.125 C 3.082031 -4.050781 2.65625 -3.585938 2.65625 -2.734375 C 2.65625 -1.878906 3.035156 -1.453125 3.796875 -1.453125 C 4.410156 -1.453125 5.066406 -1.550781 5.765625 -1.75 L 6.09375 -1.859375 L 6.09375 -4.328125 Z M 3.9375 -4.125 "/></g></g></g><g fill="#c40a6e" fill-opacity="1"><g transform="translate(219.053573, 21.05268)"><g><path d="M 7.671875 -7.375 C 6.210938 -7.570312 5.15625 -7.671875 4.5 -7.671875 C 3.84375 -7.671875 3.382812 -7.59375 3.125 -7.4375 C 2.875 -7.289062 2.75 -7.046875 2.75 -6.703125 C 2.75 -6.367188 2.890625 -6.132812 3.171875 -6 C 3.453125 -5.863281 4.109375 -5.707031 5.140625 -5.53125 C 6.171875 -5.351562 6.90625 -5.070312 7.34375 -4.6875 C 7.78125 -4.300781 8 -3.617188 8 -2.640625 C 8 -1.660156 7.6875 -0.941406 7.0625 -0.484375 C 6.4375 -0.0234375 5.519531 0.203125 4.3125 0.203125 C 3.550781 0.203125 2.597656 0.0976562 1.453125 -0.109375 L 0.875 -0.203125 L 0.953125 -1.890625 C 2.429688 -1.691406 3.5 -1.59375 4.15625 -1.59375 C 4.820312 -1.59375 5.289062 -1.671875 5.5625 -1.828125 C 5.84375 -1.992188 5.984375 -2.265625 5.984375 -2.640625 C 5.984375 -3.015625 5.847656 -3.269531 5.578125 -3.40625 C 5.316406 -3.550781 4.679688 -3.707031 3.671875 -3.875 C 2.660156 -4.039062 1.921875 -4.300781 1.453125 -4.65625 C 0.984375 -5.019531 0.75 -5.675781 0.75 -6.625 C 0.75 -7.582031 1.070312 -8.296875 1.71875 -8.765625 C 2.375 -9.242188 3.207031 -9.484375 4.21875 -9.484375 C 5.007812 -9.484375 5.984375 -9.382812 7.140625 -9.1875 L 7.71875 -9.078125 Z M 7.671875 -7.375 "/></g></g></g><g fill="#c40a6e" fill-opacity="1"><g transform="translate(231.746296, 21.05268)"><g><path d="M 3.65625 -7.5625 L 3.65625 0 L 1.65625 0 L 1.65625 -7.5625 L 0.578125 -7.5625 L 0.578125 -9.296875 L 1.65625 -9.296875 L 1.65625 -9.890625 C 1.65625 -11.210938 1.847656 -12.125 2.234375 -12.625 C 2.617188 -13.125 3.300781 -13.375 4.28125 -13.375 L 6.28125 -13.1875 L 6.265625 -11.53125 C 5.660156 -11.550781 5.15625 -11.5625 4.75 -11.5625 C 4.34375 -11.5625 4.054688 -11.441406 3.890625 -11.203125 C 3.734375 -10.960938 3.65625 -10.519531 3.65625 -9.875 L 3.65625 -9.296875 L 6.125 -9.296875 L 6.125 -7.5625 Z M 3.65625 -7.5625 "/></g></g></g><g fill="#c40a6e" fill-opacity="1"><g transform="translate(242.153878, 21.05268)"><g><path d="M 8.109375 -6.4375 L 8.109375 -2.1875 C 8.117188 -1.914062 8.1875 -1.710938 8.3125 -1.578125 C 8.445312 -1.453125 8.648438 -1.375 8.921875 -1.34375 L 8.875 0.203125 C 7.800781 0.203125 6.972656 -0.0234375 6.390625 -0.484375 C 5.398438 -0.0234375 4.40625 0.203125 3.40625 0.203125 C 1.550781 0.203125 0.625 -0.78125 0.625 -2.75 C 0.625 -3.695312 0.875 -4.378906 1.375 -4.796875 C 1.882812 -5.210938 2.660156 -5.46875 3.703125 -5.5625 L 6.09375 -5.765625 L 6.09375 -6.4375 C 6.09375 -6.925781 5.984375 -7.269531 5.765625 -7.46875 C 5.554688 -7.664062 5.238281 -7.765625 4.8125 -7.765625 C 4.019531 -7.765625 3.03125 -7.71875 1.84375 -7.625 L 1.25 -7.59375 L 1.171875 -9.015625 C 2.523438 -9.335938 3.765625 -9.5 4.890625 -9.5 C 6.023438 -9.5 6.84375 -9.253906 7.34375 -8.765625 C 7.851562 -8.273438 8.109375 -7.5 8.109375 -6.4375 Z M 3.9375 -4.125 C 3.082031 -4.050781 2.65625 -3.585938 2.65625 -2.734375 C 2.65625 -1.878906 3.035156 -1.453125 3.796875 -1.453125 C 4.410156 -1.453125 5.066406 -1.550781 5.765625 -1.75 L 6.09375 -1.859375 L 6.09375 -4.328125 Z M 3.9375 -4.125 "/></g></g></g><g fill="#c40a6e" fill-opacity="1"><g transform="translate(255.552597, 21.05268)"><g><path d="M 7.671875 -7.375 C 6.210938 -7.570312 5.15625 -7.671875 4.5 -7.671875 C 3.84375 -7.671875 3.382812 -7.59375 3.125 -7.4375 C 2.875 -7.289062 2.75 -7.046875 2.75 -6.703125 C 2.75 -6.367188 2.890625 -6.132812 3.171875 -6 C 3.453125 -5.863281 4.109375 -5.707031 5.140625 -5.53125 C 6.171875 -5.351562 6.90625 -5.070312 7.34375 -4.6875 C 7.78125 -4.300781 8 -3.617188 8 -2.640625 C 8 -1.660156 7.6875 -0.941406 7.0625 -0.484375 C 6.4375 -0.0234375 5.519531 0.203125 4.3125 0.203125 C 3.550781 0.203125 2.597656 0.0976562 1.453125 -0.109375 L 0.875 -0.203125 L 0.953125 -1.890625 C 2.429688 -1.691406 3.5 -1.59375 4.15625 -1.59375 C 4.820312 -1.59375 5.289062 -1.671875 5.5625 -1.828125 C 5.84375 -1.992188 5.984375 -2.265625 5.984375 -2.640625 C 5.984375 -3.015625 5.847656 -3.269531 5.578125 -3.40625 C 5.316406 -3.550781 4.679688 -3.707031 3.671875 -3.875 C 2.660156 -4.039062 1.921875 -4.300781 1.453125 -4.65625 C 0.984375 -5.019531 0.75 -5.675781 0.75 -6.625 C 0.75 -7.582031 1.070312 -8.296875 1.71875 -8.765625 C 2.375 -9.242188 3.207031 -9.484375 4.21875 -9.484375 C 5.007812 -9.484375 5.984375 -9.382812 7.140625 -9.1875 L 7.71875 -9.078125 Z M 7.671875 -7.375 "/></g></g></g><g fill="#c40a6e" fill-opacity="1"><g transform="translate(268.24532, 21.05268)"><g><path d="M 7.84375 -1.671875 L 8.375 -1.734375 L 8.40625 -0.21875 C 6.988281 0.0625 5.738281 0.203125 4.65625 0.203125 C 3.269531 0.203125 2.273438 -0.171875 1.671875 -0.921875 C 1.078125 -1.679688 0.78125 -2.894531 0.78125 -4.5625 C 0.78125 -7.851562 2.125 -9.5 4.8125 -9.5 C 7.414062 -9.5 8.71875 -8.082031 8.71875 -5.25 L 8.59375 -3.796875 L 2.828125 -3.796875 C 2.835938 -3.023438 3.003906 -2.457031 3.328125 -2.09375 C 3.648438 -1.738281 4.25 -1.5625 5.125 -1.5625 C 6.007812 -1.5625 6.914062 -1.597656 7.84375 -1.671875 Z M 6.734375 -5.359375 C 6.734375 -6.273438 6.585938 -6.914062 6.296875 -7.28125 C 6.003906 -7.644531 5.507812 -7.828125 4.8125 -7.828125 C 4.125 -7.828125 3.617188 -7.632812 3.296875 -7.25 C 2.984375 -6.863281 2.820312 -6.234375 2.8125 -5.359375 Z M 6.734375 -5.359375 "/></g></g></g><g fill="#c40a6e" fill-opacity="1"><g transform="translate(281.662617, 21.05268)"><g><path d="M 1.234375 0 L 1.234375 -9.296875 L 3.234375 -9.296875 L 3.234375 -8.1875 C 4.285156 -8.863281 5.335938 -9.300781 6.390625 -9.5 L 6.390625 -7.46875 C 5.328125 -7.257812 4.414062 -6.988281 3.65625 -6.65625 L 3.25 -6.484375 L 3.25 0 Z M 1.234375 0 "/></g></g></g><g fill="#c40a6e" fill-opacity="1"><g transform="translate(292.348878, 21.05268)"><g><path d="M 6.234375 -7.5625 L 3.65625 -7.5625 L 3.65625 -3.484375 C 3.65625 -2.722656 3.710938 -2.21875 3.828125 -1.96875 C 3.941406 -1.71875 4.226562 -1.59375 4.6875 -1.59375 L 6.203125 -1.65625 L 6.296875 -0.03125 C 5.472656 0.125 4.84375 0.203125 4.40625 0.203125 C 3.351562 0.203125 2.628906 -0.0351562 2.234375 -0.515625 C 1.847656 -1.003906 1.65625 -1.914062 1.65625 -3.25 L 1.65625 -7.5625 L 0.46875 -7.5625 L 0.46875 -9.296875 L 1.65625 -9.296875 L 1.65625 -12 L 3.65625 -12 L 3.65625 -9.296875 L 6.234375 -9.296875 Z M 6.234375 -7.5625 "/></g></g></g><g fill="#c40a6e" fill-opacity="1"><g transform="translate(302.979386, 21.05268)"><g><path d="M 7.84375 -1.671875 L 8.375 -1.734375 L 8.40625 -0.21875 C 6.988281 0.0625 5.738281 0.203125 4.65625 0.203125 C 3.269531 0.203125 2.273438 -0.171875 1.671875 -0.921875 C 1.078125 -1.679688 0.78125 -2.894531 0.78125 -4.5625 C 0.78125 -7.851562 2.125 -9.5 4.8125 -9.5 C 7.414062 -9.5 8.71875 -8.082031 8.71875 -5.25 L 8.59375 -3.796875 L 2.828125 -3.796875 C 2.835938 -3.023438 3.003906 -2.457031 3.328125 -2.09375 C 3.648438 -1.738281 4.25 -1.5625 5.125 -1.5625 C 6.007812 -1.5625 6.914062 -1.597656 7.84375 -1.671875 Z M 6.734375 -5.359375 C 6.734375 -6.273438 6.585938 -6.914062 6.296875 -7.28125 C 6.003906 -7.644531 5.507812 -7.828125 4.8125 -7.828125 C 4.125 -7.828125 3.617188 -7.632812 3.296875 -7.25 C 2.984375 -6.863281 2.820312 -6.234375 2.8125 -5.359375 Z M 6.734375 -5.359375 "/></g></g></g><g fill="#c40a6e" fill-opacity="1"><g transform="translate(316.396683, 21.05268)"><g><path d="M 4.703125 -9.5 C 5.359375 -9.5 6.132812 -9.410156 7.03125 -9.234375 L 7.5 -9.140625 L 7.421875 -7.546875 C 6.441406 -7.648438 5.71875 -7.703125 5.25 -7.703125 C 4.300781 -7.703125 3.664062 -7.488281 3.34375 -7.0625 C 3.019531 -6.644531 2.859375 -5.851562 2.859375 -4.6875 C 2.859375 -3.519531 3.015625 -2.710938 3.328125 -2.265625 C 3.640625 -1.816406 4.285156 -1.59375 5.265625 -1.59375 L 7.4375 -1.75 L 7.5 -0.125 C 6.238281 0.09375 5.296875 0.203125 4.671875 0.203125 C 3.253906 0.203125 2.253906 -0.175781 1.671875 -0.9375 C 1.097656 -1.695312 0.8125 -2.941406 0.8125 -4.671875 C 0.8125 -6.410156 1.113281 -7.648438 1.71875 -8.390625 C 2.332031 -9.128906 3.328125 -9.5 4.703125 -9.5 Z M 4.703125 -9.5 "/></g></g></g><g fill="#c40a6e" fill-opacity="1"><g transform="translate(328.587801, 21.05268)"><g><path d="M 3.25 0 L 1.234375 0 L 1.234375 -13.171875 L 3.25 -13.171875 L 3.25 -8.8125 C 4.164062 -9.269531 5.015625 -9.5 5.796875 -9.5 C 7.035156 -9.5 7.878906 -9.148438 8.328125 -8.453125 C 8.785156 -7.753906 9.015625 -6.597656 9.015625 -4.984375 L 9.015625 0 L 6.984375 0 L 6.984375 -4.921875 C 6.984375 -5.929688 6.878906 -6.644531 6.671875 -7.0625 C 6.460938 -7.488281 6.019531 -7.703125 5.34375 -7.703125 C 4.738281 -7.703125 4.140625 -7.601562 3.546875 -7.40625 L 3.25 -7.28125 Z M 3.25 0 "/></g></g></g><g fill="#c40a6e" fill-opacity="1"><g transform="translate(342.711072, 21.05268)"><g><path d="M 3.25 0 L 1.234375 0 L 1.234375 -9.296875 L 3.234375 -9.296875 L 3.234375 -8.71875 C 4.140625 -9.238281 4.992188 -9.5 5.796875 -9.5 C 7.035156 -9.5 7.878906 -9.148438 8.328125 -8.453125 C 8.785156 -7.753906 9.015625 -6.597656 9.015625 -4.984375 L 9.015625 0 L 7.015625 0 L 7.015625 -4.921875 C 7.015625 -5.929688 6.90625 -6.644531 6.6875 -7.0625 C 6.46875 -7.488281 6.023438 -7.703125 5.359375 -7.703125 C 4.722656 -7.703125 4.113281 -7.578125 3.53125 -7.328125 L 3.25 -7.21875 Z M 3.25 0 "/></g></g></g><g fill="#c40a6e" fill-opacity="1"><g transform="translate(356.834343, 21.05268)"><g><path d="M 1.234375 0 L 1.234375 -9.296875 L 3.25 -9.296875 L 3.25 0 Z M 1.234375 -10.875 L 1.234375 -13.015625 L 3.25 -13.015625 L 3.25 -10.875 Z M 1.234375 -10.875 "/></g></g></g><g fill="#c40a6e" fill-opacity="1"><g transform="translate(365.291174, 21.05268)"><g><path d="M 3.25 0 L 1.234375 0 L 1.234375 -13.171875 L 3.25 -13.171875 L 3.25 -5.5625 L 4.40625 -5.671875 L 6.59375 -9.296875 L 8.875 -9.296875 L 6.1875 -4.953125 L 9.015625 0 L 6.734375 0 L 4.46875 -3.921875 L 3.25 -3.796875 Z M 3.25 0 "/></g></g></g></g></g><g transform="matrix(1, 0, 0, 1, 0, 160)"><g clip-path="url(#e1566755ce)"><g fill="#1d04b4" fill-opacity="1"><g transform="translate(0.214769, 33.441885)"><g><path d="M 33.09375 -5.90625 C 33.09375 -4.28125 32.507812 -2.882812 31.34375 -1.71875 C 30.195312 -0.570312 28.8125 0 27.1875 0 L 0 0 L 0 -2.953125 L 27.1875 -2.953125 C 27.988281 -2.953125 28.679688 -3.242188 29.265625 -3.828125 C 29.847656 -4.410156 30.140625 -5.101562 30.140625 -5.90625 C 30.140625 -6.726562 29.847656 -7.425781 29.265625 -8 C 28.679688 -8.570312 27.988281 -8.859375 27.1875 -8.859375 L 5.90625 -8.859375 C 4.25 -8.859375 2.851562 -9.425781 1.71875 -10.5625 C 0.570312 -11.707031 0 -13.117188 0 -14.796875 C 0 -16.410156 0.570312 -17.789062 1.71875 -18.9375 C 2.882812 -20.101562 4.28125 -20.6875 5.90625 -20.6875 L 31.34375 -20.6875 L 31.34375 -17.703125 L 5.90625 -17.703125 C 5.101562 -17.703125 4.410156 -17.414062 3.828125 -16.84375 C 3.242188 -16.269531 2.953125 -15.585938 2.953125 -14.796875 C 2.953125 -13.972656 3.242188 -13.273438 3.828125 -12.703125 C 4.410156 -12.128906 5.101562 -11.84375 5.90625 -11.84375 L 27.1875 -11.84375 C 28.789062 -11.84375 30.175781 -11.257812 31.34375 -10.09375 C 32.507812 -8.914062 33.09375 -7.519531 33.09375 -5.90625 Z M 33.09375 -5.90625 "/></g></g></g><g fill="#1d04b4" fill-opacity="1"><g transform="translate(37.292398, 33.441885)"><g><path d="M 31.90625 0 L 31.90625 -13 C 31.90625 -14.269531 31.4375 -15.375 30.5 -16.3125 C 29.570312 -17.238281 28.46875 -17.703125 27.1875 -17.703125 L 23.640625 -17.703125 C 22.335938 -17.703125 21.222656 -17.238281 20.296875 -16.3125 C 19.367188 -15.375 18.90625 -14.269531 18.90625 -13 L 18.90625 0 L 15.953125 0 L 15.953125 -13 C 15.953125 -14.269531 15.484375 -15.375 14.546875 -16.3125 C 13.617188 -17.238281 12.519531 -17.703125 11.25 -17.703125 L 7.703125 -17.703125 C 6.390625 -17.703125 5.269531 -17.238281 4.34375 -16.3125 C 3.414062 -15.375 2.953125 -14.269531 2.953125 -13 L 2.953125 0 L 0 0 L 0 -13 C 0 -15.125 0.742188 -16.929688 2.234375 -18.421875 C 3.742188 -19.929688 5.566406 -20.6875 7.703125 -20.6875 L 11.25 -20.6875 C 13.851562 -20.6875 15.910156 -19.640625 17.421875 -17.546875 C 18.960938 -19.640625 21.035156 -20.6875 23.640625 -20.6875 L 27.1875 -20.6875 C 29.289062 -20.6875 31.085938 -19.929688 32.578125 -18.421875 C 34.085938 -16.929688 34.84375 -15.125 34.84375 -13 L 34.84375 0 Z M 31.90625 0 "/></g></g></g><g fill="#1d04b4" fill-opacity="1"><g transform="translate(76.124242, 33.441885)"><g><path d="M 30.140625 0 L 30.109375 -13 C 30.109375 -14.269531 29.640625 -15.375 28.703125 -16.3125 C 27.773438 -17.238281 26.675781 -17.703125 25.40625 -17.703125 L 7.703125 -17.703125 C 6.390625 -17.703125 5.269531 -17.238281 4.34375 -16.3125 C 3.4375 -15.40625 2.984375 -14.300781 2.984375 -13 L 2.953125 -7.703125 C 2.953125 -6.390625 3.414062 -5.269531 4.34375 -4.34375 C 5.269531 -3.414062 6.390625 -2.953125 7.703125 -2.953125 L 26 -2.953125 L 26 0 L 7.703125 0 C 5.597656 0 3.773438 -0.742188 2.234375 -2.234375 C 0.742188 -3.773438 0 -5.597656 0 -7.703125 L 0 -13 C 0 -15.125 0.742188 -16.929688 2.234375 -18.421875 C 3.742188 -19.929688 5.566406 -20.6875 7.703125 -20.6875 L 25.40625 -20.6875 C 27.53125 -20.6875 29.335938 -19.929688 30.828125 -18.421875 C 32.335938 -16.929688 33.09375 -15.125 33.09375 -13 L 33.09375 0 Z M 30.140625 0 "/></g></g></g></g></g><g transform="matrix(1, 0, 0, 1, 189, 160)"><g clip-path="url(#7d45856755)"><g clip-path="url(#171ba2dcb7)"><g fill="#c40a6e" fill-opacity="1"><g transform="translate(0.299743, 33.441885)"><g><path d="M 33.09375 -14.796875 C 33.09375 -13.148438 32.507812 -11.738281 31.34375 -10.5625 C 30.195312 -9.425781 28.8125 -8.859375 27.1875 -8.859375 L 5.296875 -8.859375 L 5.296875 -11.84375 L 27.1875 -11.84375 C 27.988281 -11.84375 28.679688 -12.128906 29.265625 -12.703125 C 29.847656 -13.273438 30.140625 -13.972656 30.140625 -14.796875 C 30.140625 -15.585938 29.847656 -16.269531 29.265625 -16.84375 C 28.679688 -17.414062 27.988281 -17.703125 27.1875 -17.703125 L 7.703125 -17.703125 C 6.390625 -17.703125 5.269531 -17.238281 4.34375 -16.3125 C 3.4375 -15.40625 2.984375 -14.300781 2.984375 -13 L 2.953125 -7.703125 C 2.953125 -6.390625 3.414062 -5.269531 4.34375 -4.34375 C 5.269531 -3.414062 6.390625 -2.953125 7.703125 -2.953125 L 31.34375 -2.953125 L 31.34375 0 L 7.703125 0 C 5.597656 0 3.773438 -0.742188 2.234375 -2.234375 C 0.742188 -3.773438 0 -5.597656 0 -7.703125 L 0 -13 C 0 -15.125 0.742188 -16.929688 2.234375 -18.421875 C 3.742188 -19.929688 5.566406 -20.6875 7.703125 -20.6875 L 27.1875 -20.6875 C 28.789062 -20.6875 30.175781 -20.101562 31.34375 -18.9375 C 32.507812 -17.769531 33.09375 -16.390625 33.09375 -14.796875 Z M 33.09375 -14.796875 "/></g></g></g></g><g fill="#c40a6e" fill-opacity="1"><g transform="translate(37.377372, 33.441885)"><g><path d="M 7.703125 0 C 5.597656 0 3.773438 -0.742188 2.234375 -2.234375 C 0.742188 -3.773438 0 -5.597656 0 -7.703125 L 0 -13 C 0 -15.125 0.742188 -16.929688 2.234375 -18.421875 C 3.742188 -19.929688 5.566406 -20.6875 7.703125 -20.6875 L 29.546875 -20.6875 L 29.546875 -17.703125 L 7.703125 -17.703125 C 6.390625 -17.703125 5.269531 -17.238281 4.34375 -16.3125 C 3.4375 -15.40625 2.984375 -14.300781 2.984375 -13 L 2.953125 -7.703125 C 2.953125 -6.390625 3.414062 -5.269531 4.34375 -4.34375 C 5.269531 -3.414062 6.390625 -2.953125 7.703125 -2.953125 L 29.546875 -2.953125 L 29.546875 0 Z M 7.703125 0 "/></g></g></g><g fill="#c40a6e" fill-opacity="1"><g transform="translate(70.906723, 33.441885)"><g><path d="M 30.140625 0 L 30.140625 -13 C 30.140625 -14.269531 29.675781 -15.375 28.75 -16.3125 C 27.820312 -17.238281 26.707031 -17.703125 25.40625 -17.703125 L 7.703125 -17.703125 C 6.390625 -17.703125 5.269531 -17.238281 4.34375 -16.3125 C 3.414062 -15.375 2.953125 -14.269531 2.953125 -13 L 2.953125 0 L 0 0 L 0 -13 C 0 -14.988281 0.675781 -16.726562 2.03125 -18.21875 C 3.46875 -19.738281 5.15625 -20.550781 7.09375 -20.65625 L 7.09375 -26 L 10.046875 -26 L 10.046875 -20.6875 L 25.40625 -20.6875 C 27.53125 -20.6875 29.335938 -19.929688 30.828125 -18.421875 C 32.335938 -16.929688 33.09375 -15.125 33.09375 -13 L 33.09375 0 Z M 30.140625 0 "/></g></g></g><g fill="#c40a6e" fill-opacity="1"><g transform="translate(107.984352, 33.441885)"><g><path d="M 30.140625 0 L 30.140625 -13 C 30.140625 -14.269531 29.675781 -15.375 28.75 -16.3125 C 27.820312 -17.238281 26.707031 -17.703125 25.40625 -17.703125 L 7.703125 -17.703125 C 6.390625 -17.703125 5.269531 -17.238281 4.34375 -16.3125 C 3.414062 -15.375 2.953125 -14.269531 2.953125 -13 L 2.953125 0 L 0 0 L 0 -13 C 0 -15.125 0.742188 -16.929688 2.234375 -18.421875 C 3.742188 -19.929688 5.566406 -20.6875 7.703125 -20.6875 L 25.40625 -20.6875 C 27.53125 -20.6875 29.335938 -19.929688 30.828125 -18.421875 C 32.335938 -16.929688 33.09375 -15.125 33.09375 -13 L 33.09375 0 Z M 30.140625 0 "/></g></g></g><g fill="#c40a6e" fill-opacity="1"><g transform="translate(145.061981, 33.441885)"><g><path d="M 0 -23.046875 L 0 -26 L 2.953125 -26 L 2.953125 -23.046875 Z M 0 0 L 0 -20.6875 L 2.953125 -20.6875 L 2.953125 0 Z M 0 0 "/></g></g></g><g fill="#c40a6e" fill-opacity="1"><g transform="translate(151.999089, 33.441885)"><g><path d="M 30.140625 0 L 30.140625 -4.140625 C 30.140625 -5.421875 29.675781 -6.523438 28.75 -7.453125 C 27.820312 -8.390625 26.707031 -8.859375 25.40625 -8.859375 L 7.703125 -8.859375 C 5.734375 -8.859375 4.148438 -9.640625 2.953125 -11.203125 L 2.953125 0 L 0 0 L 0 -26 L 2.953125 -26 L 2.953125 -18.34375 C 4.148438 -19.90625 5.734375 -20.6875 7.703125 -20.6875 L 29.546875 -20.6875 L 29.546875 -17.703125 L 7.703125 -17.703125 C 6.867188 -17.703125 6.164062 -17.414062 5.59375 -16.84375 C 5.03125 -16.269531 4.75 -15.585938 4.75 -14.796875 C 4.75 -13.972656 5.03125 -13.273438 5.59375 -12.703125 C 6.164062 -12.128906 6.867188 -11.84375 7.703125 -11.84375 L 25.40625 -11.84375 C 27.53125 -11.84375 29.335938 -11.082031 30.828125 -9.5625 C 32.335938 -8.082031 33.09375 -6.273438 33.09375 -4.140625 L 33.09375 0 Z M 30.140625 0 "/></g></g></g></g></g><g transform="matrix(1, 0, 0, 1, 156, 151)"><g clip-path="url(#f2a0b3a03d)"><g clip-path="url(#0f916eefd0)"><g fill="#c40a6e" fill-opacity="1"><g transform="translate(0.461991, 42.26905)"><g><path d="M 29.40625 -29.8125 C 27.71875 -29.8125 26.269531 -29.207031 25.0625 -28 C 23.894531 -26.832031 23.3125 -25.390625 23.3125 -23.671875 L 23.3125 0 L 19.5 0 L 19.5 -23.671875 C 19.5 -25.359375 18.894531 -26.800781 17.6875 -28 C 16.488281 -29.207031 15.0625 -29.8125 13.40625 -29.8125 L 0 -29.8125 L 0 -33.625 L 13.40625 -33.625 C 16.738281 -33.625 19.40625 -32.265625 21.40625 -29.546875 C 23.394531 -32.265625 26.0625 -33.625 29.40625 -33.625 L 42.8125 -33.625 L 42.8125 -29.8125 Z M 29.40625 -29.8125 "/></g></g></g></g></g></g><g transform="matrix(1, 0, 0, 1, 114, 156)"><g clip-path="url(#f566cef44e)"><g clip-path="url(#64bf3ffdfc)"><g fill="#1d04b4" fill-opacity="1"><g transform="translate(0.544721, 43.07233)"><g><path d="M 42.8125 -21.40625 C 42.8125 -18.65625 41.832031 -16.300781 39.875 -14.34375 C 37.945312 -12.414062 35.609375 -11.453125 32.859375 -11.453125 L 14.546875 -11.453125 C 13.484375 -11.453125 12.582031 -11.082031 11.84375 -10.34375 C 11.101562 -9.601562 10.734375 -8.703125 10.734375 -7.640625 C 10.734375 -6.609375 11.101562 -5.710938 11.84375 -4.953125 C 12.582031 -4.191406 13.484375 -3.8125 14.546875 -3.8125 L 40.546875 -3.8125 L 40.546875 0 L 14.546875 0 C 12.378906 0 10.554688 -0.738281 9.078125 -2.21875 C 7.597656 -3.695312 6.859375 -5.503906 6.859375 -7.640625 C 6.859375 -9.765625 7.597656 -11.566406 9.078125 -13.046875 C 10.585938 -14.554688 12.410156 -15.3125 14.546875 -15.3125 L 32.859375 -15.3125 C 34.535156 -15.3125 35.960938 -15.898438 37.140625 -17.078125 C 38.335938 -18.273438 38.9375 -19.71875 38.9375 -21.40625 L 38.9375 -23.671875 C 38.9375 -25.359375 38.335938 -26.800781 37.140625 -28 C 35.929688 -29.207031 34.503906 -29.8125 32.859375 -29.8125 L 9.953125 -29.8125 C 8.265625 -29.8125 6.820312 -29.207031 5.625 -28 C 4.457031 -26.832031 3.875 -25.390625 3.875 -23.671875 L 3.8125 0 L 0 0 L 0 -23.671875 C 0 -26.421875 0.960938 -28.757812 2.890625 -30.6875 C 4.847656 -32.644531 7.203125 -33.625 9.953125 -33.625 L 32.859375 -33.625 C 35.609375 -33.625 37.945312 -32.644531 39.875 -30.6875 C 41.832031 -28.757812 42.8125 -26.421875 42.8125 -23.671875 Z M 42.8125 -21.40625 "/></g></g></g></g></g></g><g transform="matrix(1, 0, 0, 1, 145, 156)"><g clip-path="url(#0b193926bd)"><g fill="#1d04b4" fill-opacity="1"><g transform="translate(1.078476, 43.07233)"><g><path d="M 29.40625 -29.8125 C 27.71875 -29.8125 26.269531 -29.207031 25.0625 -28 C 23.894531 -26.832031 23.3125 -25.390625 23.3125 -23.671875 L 23.3125 0 L 19.5 0 L 19.5 -23.671875 C 19.5 -25.359375 18.894531 -26.800781 17.6875 -28 C 16.488281 -29.207031 15.0625 -29.8125 13.40625 -29.8125 L 0 -29.8125 L 0 -33.625 L 13.40625 -33.625 C 16.738281 -33.625 19.40625 -32.265625 21.40625 -29.546875 C 23.394531 -32.265625 26.0625 -33.625 29.40625 -33.625 L 42.8125 -33.625 L 42.8125 -29.8125 Z M 29.40625 -29.8125 "/></g></g></g></g></g></svg>